<?xml version="1.0" encoding="utf-8"?>
<!-- Generator: Adobe Illustrator 25.4.1, SVG Export Plug-In . SVG Version: 6.00 Build 0)  -->
<svg version="1.1" id="Ñëîé_2" xmlns="http://www.w3.org/2000/svg" xmlns:xlink="http://www.w3.org/1999/xlink" x="0px" y="0px"
	 viewBox="0 0 332.5 217.7" style="enable-background:new 0 0 332.5 217.7;" xml:space="preserve">
<style type="text/css">
	.st0{fill:#c8d1be;}
</style>
<g>
	<g>
		<path class="st0" d="M212,64.4c-0.1,4,0.4,8.2,3.1,11.4c2,2.4,5.1,3.6,8.2,3.6c7.7-0.1,13.7-6.4,16.2-13.2c1.1-2.9,1.9-6,2.5-9
			c-0.2,0.3-0.4,0.6-0.7,0.9c6-2.6,12.4-4.7,18.9-5.2c7-0.6,14.3,1.3,20.8,3.5c11.3,3.7,22.2,9.9,29.9,19.2
			c7,8.4,10.2,19.3,9.1,30.2c-1.2,12-8.3,24.1-19.5,29.3c-6,2.7-12.7,3.1-19.1,2.2c-0.9-0.1-1.9-0.4-2.9-0.4
			c-1.2-0.1-2.4,0.4-3.5,0.8c-3.4,1.4-6,4-7.7,7.2c-0.3,0.5,0.1,1.3,0.6,1.5c13.4,4.6,28.7,2.8,40.9-4.3
			c12.4-7.2,20.6-19.4,22.9-33.5c2.4-14.6-1.6-29.5-11.3-40.6c-5.9-6.8-13.3-12.1-21-16.7c-7.4-4.4-14.9-8.1-23.5-9.2
			c-8.1-1.1-16.5-0.5-24.5,1.1c-3.7,0.7-7.4,1.7-10.9,3c0.5,0.4,1,0.8,1.6,1.2c0.8-12.1-4.8-22.8-13.2-31.1
			c-8-7.9-18.1-12.9-29.1-14.9c-25.1-4.7-49.4,5.8-69.5,20.1c-11.2,7.9-21.7,16.9-31.7,26.3c-9.8,9.2-19.2,19-28,29.2
			c-17.6,20.5-33,42.9-45.9,66.8c-6.4,12-12.2,24.3-17.3,36.8c-2.4,5.8-4.6,11.8-6,17.9c-0.7,3-1.2,6-1.3,9.1
			c-0.1,2.4-0.5,5.4,0.8,7.6c0.9,1.5,2.5,2.5,4.1,1.3c-0.6-0.4-1.2-0.9-1.8-1.3c-0.2,0.4-0.4,0.8-0.7,1.3c0.7,0.2,1.4,0.4,2.2,0.5
			c2.4-27.3,17.4-50.4,31.2-73.2C47.7,124.2,60,105,74.5,87.8c8-9.5,16.8-18.3,25.5-27c8.2-8.1,16.8-15.7,26.1-22.6
			c5.8-4.3,11.8-8.7,18.1-12.2c5.8-3.3,12.1-5.7,18.5-7.5c6.4-1.8,13-2.9,19.6-3.4c6.7-0.5,13.5-0.3,20,1.5
			c6.6,1.8,13.5,5.1,18.3,10c4,4.1,5.9,9.3,6.9,14.8c0.6,3.1,1,6.2,1.4,9.3c0.2-0.4,0.4-0.8,0.7-1.2c-7,2.7-13.5,8-17.5,14.3
			c-0.8,1.2,1,2.5,1.8,1.3c3.8-6,9.9-11,16.6-13.6c0.5-0.2,0.7-0.7,0.7-1.2c-0.8-6-1.4-12.3-3.9-17.9c-2.4-5.6-6.8-9.7-12-12.8
			c-6-3.6-12.7-5.9-19.7-6.7c-6.5-0.7-13.2-0.4-19.6,0.4c-13.5,1.8-26.4,6.2-37.8,13.6c-11.3,7.3-22.1,15.5-32,24.6
			C99.9,57.5,94,63.8,87.9,70c-3.7,3.8-7.4,7.6-11,11.6C63.1,97.1,51.4,114.4,40.4,132c-7.6,12.2-15.3,24.6-22.2,37.3
			c-6.3,11.7-11.6,23.9-14.2,37c-0.7,3.4-1.1,6.8-1.4,10.2c-0.1,1.4,1.6,1.6,2.2,0.5c0.2-0.4,0.4-0.8,0.7-1.3
			c0.6-1.1-0.9-1.9-1.8-1.3c-0.6,0.5-1.3-2.1-1.3-2.4c-0.2-1.6-0.1-3.2,0-4.7c0.2-2.9,0.6-5.7,1.3-8.5c1.3-5.9,3.4-11.5,5.7-17.1
			c4.8-11.8,10.1-23.4,16.1-34.7c12-22.7,26.3-44.1,42.7-63.8c16.4-19.7,34.8-37.9,55-53.7c19.2-15,41.9-28.1,67-27.1
			c10.6,0.4,21.2,3.3,30,9.3c9.1,6.2,17.2,15.8,19.4,26.8c0.5,2.8,0.7,5.7,0.5,8.5c-0.1,0.9,0.8,1.5,1.6,1.2
			c8.4-3.3,18-4.6,26.9-4.5c8.1,0.1,15.8,1.8,23,5.5c7.6,3.9,15.1,8.6,21.6,14.3c6,5.3,11,11.6,14,19.1c2.5,6.3,3.6,13.1,3.2,19.8
			c-0.7,13.6-7,26.5-18,34.7c-12.3,9.1-28.9,12-43.5,7c0.2,0.5,0.4,1,0.6,1.5c1.8-3.4,5.8-7.1,9.9-6.4c3.4,0.5,6.7,0.8,10.2,0.7
			c7.7-0.3,14.9-3.3,20.5-8.7c12-11.4,15.4-29.1,9.9-44.6c-4.7-13.4-16.8-23.2-29.3-29c-4.3-2-8.7-3.5-13.2-4.7
			c-4.4-1.2-9-2.3-13.6-2.4c-4.3-0.1-8.6,0.6-12.8,1.7c-2,0.5-3.9,1.2-5.9,1.9c-1,0.3-1.9,0.7-2.9,1.1c-0.8,0.3-2,0.6-2.4,1.4
			c-0.4,0.8-0.4,1.9-0.6,2.7c-0.4,1.8-1,3.6-1.6,5.4c-1.5,4.2-3.9,7.9-7.7,10.3c-3.1,1.9-7.3,3-10.7,1.2c-4.2-2.1-5.1-7.3-5-11.6
			C214.3,63.2,212.1,62.9,212,64.4z"/>
	</g>
	<g>
		<path class="st0" d="M242.5,44.6c-2.6,0.8-5.2,1.5-7.7,2.5c-2.5,1-4.8,2.2-7.2,3.3c-1.7,0.8-0.6,3.6,1.2,2.8
			c2.4-1.1,4.8-2.4,7.2-3.3c2.5-1,5.1-1.7,7.7-2.5c0.8-0.2,1.1-1.3,0.8-2C244.1,44.5,243.2,44.3,242.5,44.6L242.5,44.6z"/>
	</g>
	<g>
		<path class="st0" d="M241,56c-2.7,1-5.2,2.3-7.6,3.8c-2.1,1.3-4.5,2.9-5.3,5.5c-0.2,0.8,0.1,1.6,0.9,1.9c0.7,0.3,1.7-0.1,1.9-0.9
			c0.6-2.1,2.9-3.3,4.6-4.4c2.1-1.3,4.4-2.3,6.7-3.2C244,58.1,242.8,55.3,241,56L241,56z"/>
	</g>
	<g>
		<path class="st0" d="M318.7,126.6c-8.8,11-22.4,17.6-36.4,18.2c-4,0.2-8-0.2-11.9-1c-0.5-0.1-0.6,0.6-0.1,0.7
			c14,3,29-0.6,40.4-9.2c3.2-2.4,6.1-5.2,8.6-8.3C319.6,126.7,319,126.2,318.7,126.6L318.7,126.6z"/>
	</g>
	<g>
		<path class="st0" d="M315.3,127.6c-12.2,10.9-28.8,16.4-45.1,14.8c-0.5,0-0.6,0.7-0.1,0.7c16.5,1.6,33.3-3.9,45.6-15
			C316.1,127.9,315.6,127.3,315.3,127.6L315.3,127.6z"/>
	</g>
	<g>
		<path class="st0" d="M284.4,139.4c-3.3,0.5-6.6,0.8-9.9,0.8c-0.5,0-0.6,0.7-0.1,0.7c3.4,0,6.7-0.2,10.1-0.8
			C285,140.1,284.9,139.3,284.4,139.4L284.4,139.4z"/>
	</g>
	<g>
		<path class="st0" d="M214.8,16.2c11.6,6.1,14.5,19.9,16.7,31.6c0.1,0.5,0.8,0.4,0.7-0.1c-2.3-12-5.3-26-17.2-32.2
			C214.6,15.3,214.4,16,214.8,16.2L214.8,16.2z"/>
	</g>
	<g>
		<path class="st0" d="M224.1,19.7c4.8,8.2,8.1,17.2,9.8,26.5c0.1,0.5,0.8,0.4,0.7-0.1c-1.7-9.4-5.1-18.4-9.9-26.7
			C224.5,19,223.8,19.3,224.1,19.7L224.1,19.7z"/>
	</g>
	<g>
		<path class="st0" d="M231.8,28.6c1.9,6.1,3.6,12.2,5.3,18.3c0.1,0.5,0.9,0.4,0.7-0.1c-1.7-6.2-3.5-12.4-5.4-18.5
			C232.4,27.8,231.7,28.1,231.8,28.6L231.8,28.6z"/>
	</g>
	<g>
		<path class="st0" d="M235.7,30.7c1.4,4.7,2.7,9.4,4.1,14c0.1,0.5,0.8,0.2,0.7-0.3c-1.4-4.7-2.7-9.4-4.1-14
			C236.3,30,235.6,30.3,235.7,30.7L235.7,30.7z"/>
	</g>
	<g>
		<path class="st0" d="M236.7,61.3c-2.2,5.1-6.1,12.8-12.6,12.6c-5.9-0.2-9.7-6.2-8.1-11.7c0.1-0.5-0.6-0.7-0.7-0.3
			c-1.7,5.7,2.1,12.1,8.1,12.7c7.3,0.7,11.6-7.5,14-13C237.6,61.1,236.9,60.8,236.7,61.3L236.7,61.3z"/>
	</g>
	<g>
		<path class="st0" d="M233.5,62.7c-0.6,2.3-1.8,4.3-3.6,5.9c-1.8,1.5-4.3,2.7-6.6,2.4c-2.3-0.3-4.1-2.1-5-4.1
			c-1.1-2.3-1.2-5-1.4-7.5c0-0.5-0.8-0.4-0.7,0.1c0.2,4,0.7,8.7,4.3,11.2c3.4,2.3,7.7,0.6,10.4-2c1.6-1.6,2.8-3.5,3.3-5.7
			C234.3,62.5,233.6,62.2,233.5,62.7L233.5,62.7z"/>
	</g>
	<g>
		<path class="st0" d="M229.8,66.1c-1.1,1.3-2.9,1.9-4.6,1.6c-1.7-0.4-3.1-1.8-3.6-3.4c-0.1-0.5-0.9-0.4-0.7,0.1
			c0.5,2,2.1,3.6,4.1,4.1c2,0.4,4.1-0.3,5.4-1.9C230.7,66.1,230.1,65.7,229.8,66.1L229.8,66.1z"/>
	</g>
	<g>
		<path class="st0" d="M230.7,63.5c-1.4,0.7-3.4-0.2-3.7-1.8c-0.1-0.5-0.8-0.4-0.7,0.1c0.4,2,2.9,3.3,4.7,2.4
			C231.4,63.9,231.1,63.2,230.7,63.5L230.7,63.5z"/>
	</g>
	<g>
		<path class="st0" d="M233.6,60c-0.1,0-0.2-0.1-0.2-0.1c0,0-0.1,0-0.1,0c0,0,0,0-0.1,0c0,0,0,0,0,0c-0.1-0.1-0.3-0.2-0.4-0.3
			c0,0-0.1-0.1-0.1-0.1c0,0,0,0,0,0c0,0,0,0,0,0c-0.1-0.1-0.1-0.1-0.2-0.2c0-0.1-0.1-0.1-0.1-0.2c0,0,0-0.1-0.1-0.1c0,0.1,0,0,0-0.1
			c-0.1-0.2-0.3-0.3-0.5-0.2c-0.2,0.1-0.3,0.3-0.2,0.5c0.4,0.7,1,1.2,1.7,1.5c0.2,0.1,0.4,0,0.5-0.2C233.9,60.3,233.8,60,233.6,60
			L233.6,60z"/>
	</g>
	<g>
		<path class="st0" d="M65.5,90.1c-10,13.2-19.4,26.8-28.1,40.9c-8.6,13.9-16.5,28.2-23.7,42.9c-4,8.2-7.9,16.5-10.4,25.3
			c-0.1,0.5,0.6,0.7,0.7,0.3c2.2-7.8,5.5-15.1,9-22.4c3.6-7.4,7.4-14.8,11.3-22c7.8-14.4,16.4-28.4,25.6-41.9
			c5.2-7.7,10.6-15.2,16.2-22.5C66.4,90.1,65.8,89.7,65.5,90.1L65.5,90.1z"/>
	</g>
</g>
</svg>
