<svg xmlns="http://www.w3.org/2000/svg" width="295.906" height="499.219" viewBox="0 0 295.906 499.219">
  <defs>
    <style>
      .cls-1 {
        fill-rule: evenodd;
        opacity: 0.1;
      }
    </style>
  </defs>
  <path class="cls-1" d="M249.107,395.222a63.473,63.473,0,0,1,9.063,20.131,32.894,32.894,0,0,1-4.193,26.743c-0.541.851-1.118,1.679-1.666,2.526a34.017,34.017,0,0,1-15.65,12.858,64.709,64.709,0,0,1-20.467,4.994,46.724,46.724,0,0,1-7.84-.2,75.109,75.109,0,0,1-14.2-2.948,16.475,16.475,0,0,1-7.068-3.934,2.6,2.6,0,0,1-1.014-2.383,1.132,1.132,0,0,0,.079-0.586c-1.4-2.009-.375-3.917.373-5.717,1.9-4.565,3.8-9.144,5.994-13.569,3.318-6.689,6.852-13.272,10.362-19.864,4.507-8.463,9.11-16.875,13.613-25.34A87.17,87.17,0,0,1,222.18,379c1.858-2.658,3.295-3.135,6.8-2.024a14.463,14.463,0,0,1,4.257,2.244A73.116,73.116,0,0,1,249.107,395.222Zm-22.9-12.284a5.177,5.177,0,0,0-1.4,2.98,31.4,31.4,0,0,1,2.329,2.819,89.967,89.967,0,0,1,7.6,14.1c0.975,2.312.873,4.556-1.392,6.236a1.447,1.447,0,0,0-.133.605c1.011,0.145,2,.266,2.972.43a14.264,14.264,0,0,1,5.378,1.909,5.006,5.006,0,0,1,2.571,4.507q-0.021,1.665-.107,3.329a13.489,13.489,0,0,1-4.619,9.55,9.283,9.283,0,0,1-6.532,2.717c-0.466-.007-0.933.031-1.7,0.06,0.617,1.049,1.109,1.782,1.5,2.567a15.361,15.361,0,0,1,1.3,3.047c0.686,2.836-.165,4.651-2.726,5.552a68.046,68.046,0,0,1-10.519,2.663,6.514,6.514,0,0,1-6.181-2.455c-0.361-.4-0.693-0.834-1.279-1.544-0.213,1.283-.352,2.156-0.5,3.027a4.208,4.208,0,0,1-3.443,3.712,31.3,31.3,0,0,1-8.065,1.025,14.15,14.15,0,0,1-7.74-2.2c-0.832-.543-1.739-0.969-2.766-1.534-0.718,1.245-1.374,2.365-2.012,3.5-0.293.517-.553,1.053-0.839,1.605a59.52,59.52,0,0,0,18.057,1.917q4.072-.235,8.152-0.347a22.2,22.2,0,0,0,6.26-.9c2.014-.646,4.047-1.257,6-2.051,2.794-1.135,5.706-2.093,8.094-4.026A50.41,50.41,0,0,0,244.89,434.04a15.791,15.791,0,0,0,2.914-10.023c-0.471-5.225-1.316-10.434-3.669-15.226a133.763,133.763,0,0,0-10.377-17.4,11.916,11.916,0,0,0-1.142-1.411c-1.042-1.1-2.147-2.133-3.165-3.25C228.373,385.548,227.366,384.3,226.208,382.938Zm5.078,57c0.232-1.9-.617-3.5-1.528-5.071a34.485,34.485,0,0,0-6-7.184c-2.663-2.609-5.5-5.037-8.155-7.66a66.034,66.034,0,0,1-4.57-5.233,1.541,1.541,0,0,1-.117-1.385c0.339-.646.973-0.43,1.578-0.2,1.962,0.736,3.324,2.243,4.753,3.654a106.552,106.552,0,0,0,11.537,10.217c0.569,0.418,1.141.832,1.722,1.232a4.045,4.045,0,0,0,5.059-.06,17.121,17.121,0,0,0,2.694-2.4c2.219-2.5,2.609-5.594,2.69-8.778a2.466,2.466,0,0,0-1.409-2.444,15,15,0,0,0-5.743-1.759,166.356,166.356,0,0,0-20.5-1.4c-1,.015-2,0-3.014.007a2.864,2.864,0,0,0-.81,3.509,16.91,16.91,0,0,1,.639,2.644c1.284,5.71,2.548,11.424,3.862,17.127a37.772,37.772,0,0,0,1.268,4.357c1.351,3.737,3.123,4.72,6.958,3.909,1.97-.417,3.921-0.921,5.883-1.375A5.855,5.855,0,0,0,231.286,439.935Zm-27.6,15.563-0.114.642c4.121,0.832,8.245,1.655,12.5,1.243a56.058,56.058,0,0,0,19.483-5.035,30.915,30.915,0,0,0,7.134-4.477,39.86,39.86,0,0,0,9.294-12.189c3.075-6.183,4.424-12.8,2.889-19.684a51.323,51.323,0,0,0-16.7-28.108c-0.354-.309-0.758-0.562-1.5-1.108a7.631,7.631,0,0,0,.466,1.191c2.929,4.122,5.163,8.656,7.713,13a35.789,35.789,0,0,1,4.758,13.616,46.928,46.928,0,0,1,.687,9.929,23.316,23.316,0,0,1-5.7,13.745c-1.2,1.357-2.266,2.838-3.5,4.156-2.553,2.717-5.15,5.384-8.544,7.116a82.333,82.333,0,0,1-9.486,3.9A28.832,28.832,0,0,1,213,455.121C209.894,455.109,206.79,455.361,203.686,455.5Zm5.589-10.67a21.277,21.277,0,0,0,.513-2.682,51.282,51.282,0,0,0,.216-6.337,134.876,134.876,0,0,0-2.138-17.387c-0.087-.459-0.279-0.9-0.544-1.73a94.5,94.5,0,0,0-5.238,8.739c-1.718,2.961-3.43,5.927-5.05,8.942a85.6,85.6,0,0,0-4.544,8.711C197.243,446.02,201.029,446.816,209.275,444.828Zm2.635-35.923a22.161,22.161,0,0,1,2.722-.024c4.488,0.509,8.84-.29,13.171-1.295a22.9,22.9,0,0,0,2.886-.877,1.434,1.434,0,0,0,1.028-2.118c-0.457-1.334-1-2.643-1.579-3.928a56.108,56.108,0,0,0-5.472-9.755,13.236,13.236,0,0,0-1.389-1.429C221.548,391.492,212.888,406.324,211.91,408.905ZM205.63,486.3a17.913,17.913,0,0,1-.864,2.977c-1.147,2.519-3.228,3.313-5.71,2.18a14.261,14.261,0,0,1-3.017-1.964,14.806,14.806,0,0,1-4.384-5.688c-1.317-3.144-2.409-6.385-3.521-9.611a6.025,6.025,0,0,1-.251-2.373,2.358,2.358,0,0,1,3.091-1.991,5.7,5.7,0,0,1,1.58.851q4.226,3.159,8.41,6.371a13.187,13.187,0,0,1,3.5,4.1A10.809,10.809,0,0,1,205.63,486.3Zm-13.2-10.958c1.174,3.329,1.984,6.007,3.451,8.391a27.7,27.7,0,0,0,2.933,3.778,3.3,3.3,0,0,0,2.528,1.394,1.617,1.617,0,0,0,.49-0.354,3.462,3.462,0,0,0,.48-1.069,6.88,6.88,0,0,0-2.134-6.824A38.977,38.977,0,0,0,192.433,475.341Zm-25.377,18.41a18.912,18.912,0,0,1,1.611-7.016,32.047,32.047,0,0,1,9.442-12.694c0.313-.252.619-0.516,0.95-0.742,1.931-1.318,2.955-.853,3.14,1.438a9.66,9.66,0,0,1,.042,2.107c-0.543,3.878-.742,7.806-1.761,11.616a25.1,25.1,0,0,1-3.36,7.7,9.515,9.515,0,0,1-4.34,3.609,3.535,3.535,0,0,1-5-1.9A7.9,7.9,0,0,1,167.056,493.751Zm11.284-14.922a9.191,9.191,0,0,0-1.141.841,37.392,37.392,0,0,0-5.437,7.978,36.489,36.489,0,0,0-2.033,5.671,5.428,5.428,0,0,0,.154,3.57,1.507,1.507,0,0,0,2.166.947,5.819,5.819,0,0,0,3.318-2.94,29.9,29.9,0,0,0,2-5.041C178.318,486.43,178.2,482.886,178.34,478.829Zm-11.891-10.264a17.534,17.534,0,0,1-2.767.945,19.86,19.86,0,0,0-5.673,1.9,6.818,6.818,0,0,1-1.964.693,1.25,1.25,0,0,1-1.264-1.917,3.706,3.706,0,0,1,1.276-1.22,14.642,14.642,0,0,1,5.91-2.074A4.91,4.91,0,0,1,166.449,468.565Zm62.688-47.233a1.7,1.7,0,0,1-.324-0.779,1.22,1.22,0,0,1,.547-0.843,4.792,4.792,0,0,1,3.537,1.937,1.435,1.435,0,0,1-.017,1.118,1.016,1.016,0,0,1-1.227.616C230.432,423.206,229.857,422.205,229.137,421.332Zm-8.541-6.708a1.587,1.587,0,0,1,.759-0.16,25.442,25.442,0,0,1,2.8,1.021,0.867,0.867,0,0,1,.331.737,0.91,0.91,0,0,1-.5.656,4.028,4.028,0,0,1-3.414-.621A1.065,1.065,0,0,1,220.6,414.624Zm-1.781,19.554c1.544,0.241,2.076,1.4,2.4,2.7a0.942,0.942,0,0,1-.378.736,0.971,0.971,0,0,1-.812.149C218.867,437.249,218.385,435.8,218.815,434.178Zm1.953-3.943a11.772,11.772,0,0,1,3.991,3.936,2.042,2.042,0,0,1-.895.207A7.577,7.577,0,0,1,220.768,430.235Zm13.92-14.5a2.238,2.238,0,0,1-.518.779,0.984,0.984,0,0,1-1.485-.413,1.173,1.173,0,0,1,.383-0.977A1.129,1.129,0,0,1,234.688,415.738ZM205.128,433.4c0.856,1.2.575,4.039-.614,4.946a2.444,2.444,0,0,1-1.659.263,1.248,1.248,0,0,1-1.05-1.273,6.519,6.519,0,0,1,1.486-4.1A1.257,1.257,0,0,1,205.128,433.4Zm2.061-9.13c0.572,1.431.792,2.683,0.082,3.894a1.254,1.254,0,0,1-.975.463,1.333,1.333,0,0,1-.961-0.531,3.424,3.424,0,0,1,.634-3.807A2.374,2.374,0,0,1,207.189,424.27Zm-8.758,17.341a2.605,2.605,0,0,1-1-.324,1.94,1.94,0,0,1-.393-2.184,1.279,1.279,0,0,1,.758-0.771,1.092,1.092,0,0,1,.793.64,5.566,5.566,0,0,1,.287,1.725A2.663,2.663,0,0,1,198.431,441.611Zm22.73-36.657a4.4,4.4,0,0,1-3.348.927,1.941,1.941,0,0,1-1.095-.85,1.162,1.162,0,0,1,.7-1.458,28.188,28.188,0,0,1,3.493-.652,1.122,1.122,0,0,1,.924.536,1.823,1.823,0,0,1-.247,1.087A1.478,1.478,0,0,1,221.161,404.954Zm2.7-6.822a5.464,5.464,0,0,1-1.371.618,1.014,1.014,0,0,1-1.04-1.5,4.132,4.132,0,0,1,3.051-1.7,0.907,0.907,0,0,1,.7.464,0.965,0.965,0,0,1-.061.851A13.115,13.115,0,0,1,223.859,398.132Zm72.257-204.774c0.465,6.263.69,12.831-.731,19.343a149.715,149.715,0,0,1-8.825,28.666,68.6,68.6,0,0,1-8.359,14.618,49.842,49.842,0,0,1-25.349,17.235,84.416,84.416,0,0,1-11.742,2.443c-5.928.945-11.877,1.758-17.8,2.712-4.8.771-9.569,1.676-14.355,2.5a8.432,8.432,0,0,0-6.394,4.305,7.812,7.812,0,0,1-3.754,3.382,67.04,67.04,0,0,0-7.569,4.57,71.22,71.22,0,0,0-5.953,4.336,6.507,6.507,0,0,1-1.721.989,1.557,1.557,0,0,1-1.974-1.736,5.735,5.735,0,0,1,.8-1.8c0.63-.953,1.351-1.847,2.048-2.755a29.368,29.368,0,0,0,5.719-12.659c0.663-3.563,1.344-7.123,1.972-10.692a192.864,192.864,0,0,1,8.9-33.41,83.239,83.239,0,0,1,12.234-22.871A62.385,62.385,0,0,1,232.012,196a61.317,61.317,0,0,1,11.08-4.538,57.064,57.064,0,0,0,15.87-8.323c0.849-.613,1.688-1.245,2.5-1.907,4.514-3.686,9.8-5.4,15.489-6.017a20.881,20.881,0,0,1,7.92.729,12.31,12.31,0,0,1,7.974,6.464A34,34,0,0,1,296.116,193.358ZM193.492,289.27c1.351-.652,2.668-1.39,4.061-1.934a8.174,8.174,0,0,0,4.266-3.6,9.671,9.671,0,0,1,5.5-4.337,71.1,71.1,0,0,1,7.691-2.177c7.469-1.509,14.969-2.868,22.457-4.283a74.979,74.979,0,0,0,12.174-3.076,46.4,46.4,0,0,0,22.149-16.91,76.846,76.846,0,0,0,7.429-13.192,220.489,220.489,0,0,0,9.6-26.323,58.437,58.437,0,0,0,2.564-16.335,36.667,36.667,0,0,0-1.179-10.763c-1.385-4.822-4.45-7.379-9.344-7.9a12.362,12.362,0,0,0-1.706-.11c-5.744.19-11.08,1.578-15.721,5.193a32.922,32.922,0,0,1-5.691,3.8,111.518,111.518,0,0,1-14.941,6.417,46.963,46.963,0,0,0-5.3,2.1c-6.545,3-11.8,7.621-16.372,13.107A72.457,72.457,0,0,0,209.5,229.218a227.362,227.362,0,0,0-8.322,25.556c-1.66,6.381-2.631,12.891-3.726,19.377C196.592,279.232,195.732,284.314,193.492,289.27Zm21.3-149.827a75.08,75.08,0,0,1-.387,20,34.412,34.412,0,0,1-6.96,15.811,71.359,71.359,0,0,1-4.941,5.55c-2.394,2.459-4.9,4.807-7.345,7.217-1.154,1.138-2.252,2.334-3.414,3.463A29.914,29.914,0,0,0,184,204.655c-0.936,3.1-2.03,6.154-3.022,9.24a6.5,6.5,0,0,0-.312,3.926,2.7,2.7,0,0,1,.028,1.134,1.792,1.792,0,0,1-2.354,1.415,5,5,0,0,1-1.681-1.025,20,20,0,0,1-2.257-2.574,50.343,50.343,0,0,1-8.507-19.526,27.05,27.05,0,0,1-.245-8.266c0.3-2.941.641-5.88,0.822-8.829a66.125,66.125,0,0,0-1.806-18.744c-1.395-6.14-3.1-12.209-4.059-18.446a79.28,79.28,0,0,1,.068-26.775,51.214,51.214,0,0,1,1.416-5.536A13.949,13.949,0,0,1,167.8,103a29.371,29.371,0,0,1,15.189-5.287,16.587,16.587,0,0,1,10.521,3.027,42.527,42.527,0,0,1,13.153,14.1,63,63,0,0,1,6.01,15.114C213.478,133.091,214.088,136.279,214.788,139.443Zm-34.882,75.229c1.472-5.4,2.843-10.152,4.042-14.949a16.4,16.4,0,0,1,3.019-6.405c2.436-3.052,4.93-6.058,7.375-9.1,2.563-3.193,5.254-6.3,7.609-9.642a36.463,36.463,0,0,0,6.348-17.259,75.3,75.3,0,0,0-3.231-31.628,52.7,52.7,0,0,0-6.288-13.415,33.824,33.824,0,0,0-7.965-8.515,12.138,12.138,0,0,0-7.7-2.593,26.535,26.535,0,0,0-13.487,4.136,11.359,11.359,0,0,0-4.907,6.124,41.82,41.82,0,0,0-1.524,5.5,72.267,72.267,0,0,0,.848,30.642c1.259,5.181,2.888,10.271,4.352,15.4a74.853,74.853,0,0,1,3.342,18.527c0.062,2.286.058,4.575,0.037,6.862a32.808,32.808,0,0,0,1.175,9.048,90.083,90.083,0,0,0,5.9,15.468C179.05,213.286,179.313,213.667,179.906,214.672Zm49.826,1.365c0.915,0.722.967,1.785,1.126,2.811q0.568,3.675,1.166,7.346c0.089,0.535.264,1.057,0.369,1.466a1,1,0,0,0,1.339-.533,48.711,48.711,0,0,1,12.443-10.835,120.711,120.711,0,0,0,16.376-12.4c2.619-2.347,5.49-4.413,8.265-6.583a2.122,2.122,0,0,1,2.469-.56,12.245,12.245,0,0,1-1.09,1.349c-3.784,3.484-7.541,7-11.395,10.4-3.281,2.9-6.657,5.694-10.033,8.484a49.571,49.571,0,0,0-7.587,7.335c-0.577.733-1.085,1.518-1.823,2.56a8.368,8.368,0,0,0,1.6.219q7.676-.741,15.345-1.534c0.935-.095,1.864-0.246,2.7-0.36a0.763,0.763,0,0,1-.3,1.289,12.183,12.183,0,0,1-2.363.942,77.426,77.426,0,0,1-17.511,2.345c-0.376,0-.752.057-1.319,0.1a54.1,54.1,0,0,0-5.884,14.628c2.541,0.079,4.81.18,7.08,0.215,4.186,0.064,8.373.073,12.559,0.143a10.336,10.336,0,0,1,2.238.343,0.838,0.838,0,0,1,.215,1.4,5.294,5.294,0,0,1-1.724.907,14.187,14.187,0,0,1-2.827.367c-5.987.261-11.977,0.724-17.952-.186a2.707,2.707,0,0,0-.712.137c-0.309.679-.67,1.443-1.006,2.216a48.609,48.609,0,0,1-24.313,25.089,11.942,11.942,0,0,1-2.391.925,2.22,2.22,0,0,1-2.694-3.067,8.091,8.091,0,0,1,1.742-2.573c1.126-1.155,2.425-2.141,3.627-3.224,2.547-2.293,5.157-4.522,7.6-6.925a39.183,39.183,0,0,0,8.63-13.031c0.881-2.111,1.638-4.274,2.529-6.38,1.039-2.456,2.1-4.907,3.282-7.295a4.679,4.679,0,0,0,.443-3.258c-0.573-2.8-1.01-5.631-1.343-8.468a27.17,27.17,0,0,1,.058-4.276C228.69,217.081,228.866,216.92,229.732,216.037Zm46.909-4.187a2.3,2.3,0,0,1-.342.943,4.228,4.228,0,0,1-1.413.882,44.968,44.968,0,0,1-4.861,1.471,6.143,6.143,0,0,1-2.483-.207,1.26,1.26,0,0,1-.514-0.893,1.007,1.007,0,0,1,.389-0.683,1.539,1.539,0,0,1,.738-0.38q3.9-.692,7.805-1.33A2.157,2.157,0,0,1,276.641,211.85Zm-10.1,28.016c-1.32.049-2.461,0.16-3.594,0.1a3.726,3.726,0,0,1-1.527-.615,0.822,0.822,0,0,1,.128-1.227,2.112,2.112,0,0,1,.786-0.282c2.178-.067,4.356-0.1,6.534-0.147a0.392,0.392,0,0,1,.266.078,1.8,1.8,0,0,1,.636.8,1.153,1.153,0,0,1-.628.812,7.349,7.349,0,0,1-1.649.393A9.03,9.03,0,0,1,266.545,239.866Zm-49.385,2.106a6.074,6.074,0,0,1-1.51-.878,14.44,14.44,0,0,1-2.818-5.174,0.821,0.821,0,0,1,0-.547,1.2,1.2,0,0,1,.482-0.616,0.93,0.93,0,0,1,.745.136,1.676,1.676,0,0,1,.494.669c0.847,1.783,1.686,3.57,2.5,5.368A4.075,4.075,0,0,1,217.16,241.972ZM178.7,192.126a5.787,5.787,0,0,1-.533-1.265,27.9,27.9,0,0,1-.246-3.7,117.549,117.549,0,0,1,3.619-23.41,28.749,28.749,0,0,1,2.278-6.151,18.089,18.089,0,0,0,1.337-12.06c-5.387-2.9-8.844-7.648-11.776-12.847-1.307-2.319-2.466-4.725-3.644-7.115a1.04,1.04,0,0,1,.785-1.636c0.874,0.916,1.209,2.241,1.916,3.321,0.678,1.034,1.233,2.147,1.881,3.2,0.7,1.137,1.409,2.267,2.171,3.36s1.567,2.16,2.4,3.2a34.431,34.431,0,0,0,2.441,2.8,9.23,9.23,0,0,0,3.259,2.624c-0.058-.844-0.058-1.381-0.137-1.906-0.3-1.98-.664-3.951-0.928-5.935a31.474,31.474,0,0,1-.209-3.421,4.106,4.106,0,0,1,.23-1.4,1.308,1.308,0,0,1,2.274-.493,15.55,15.55,0,0,1,1.376,2.155c0.421,0.718.8,1.461,1.383,2.532,0.471-1.227.805-2.086,1.131-2.948,1.249-3.3,2.472-6.6,3.762-9.884a6.582,6.582,0,0,1,1.218-1.872,1.138,1.138,0,0,1,1.042-.109,1.539,1.539,0,0,1,.615.853,1.513,1.513,0,0,1-.026.844c-0.986,3.876-1.657,7.847-3.3,11.528-0.851,1.909-1.854,3.75-2.978,6,0.2,0.8.533,1.986,0.8,3.183,0.482,2.138,1,4.271,1.371,6.428a17.71,17.71,0,0,1,.088,5.981c-0.073.437-.062,0.888-0.112,1.7,0.773-.536,1.238-0.83,1.672-1.164,1.283-.987,2.536-2.013,3.836-2.977a10.435,10.435,0,0,1,1.956-1.16,1.308,1.308,0,1,1,1.413,2.17c-2.7,2.544-5.424,5.073-8.2,7.534a6.287,6.287,0,0,1-2.463,1.368,2.864,2.864,0,0,0-2.03,1.806c-0.79,1.837-1.564,3.68-2.3,5.537-1.2,3.009-2.234,6.09-3.578,9.032a32.77,32.77,0,0,0-2.788,11.312A3.779,3.779,0,0,1,178.7,192.126Zm2.523-72.4a4.228,4.228,0,0,1-1.424-.561q-2.13-2.28-4.124-4.686a2.64,2.64,0,0,1-.381-1.33,0.971,0.971,0,0,1,1.2-.861,1.265,1.265,0,0,1,.516.217,21.267,21.267,0,0,1,4.268,5.971A3.534,3.534,0,0,1,181.225,119.727Zm-11.642,28.21a7.936,7.936,0,0,1,4.7,1.384,0.845,0.845,0,0,1,.216.741,0.821,0.821,0,0,1-.574.515c-1.507-.131-3.018-0.277-4.5-0.541a0.852,0.852,0,0,1-.632-1.111A4.087,4.087,0,0,1,169.583,147.937Zm31.759-11.95a5.149,5.149,0,0,1,.174,1.435,6.687,6.687,0,0,1-2.127,3.254,1.117,1.117,0,0,1-1.54.025,1.072,1.072,0,0,1-.328-1.5A7.715,7.715,0,0,1,201.342,135.987Zm-15.236-17.472a2.5,2.5,0,0,1-.753-0.836,8.511,8.511,0,0,1,.346-4.471,0.426,0.426,0,0,1,.159-0.225,1.669,1.669,0,0,1,.751-0.292,0.928,0.928,0,0,1,.66.427,1.931,1.931,0,0,1,.213,1.1C187.23,115.656,187.5,117.279,186.106,118.515ZM198.3,172.354c-0.876.94-1.483,1.637-2.151,2.27a0.823,0.823,0,0,1-.757.026,1.019,1.019,0,0,1-.414-0.661,1.283,1.283,0,0,1,.13-0.8C195.685,172.15,196.245,171.983,198.3,172.354ZM25.821,331.423a21.03,21.03,0,0,1,6.727-15.657,32.852,32.852,0,0,1,14.524-7.58,21.2,21.2,0,0,1,15.363,1.792c1.49,0.755,3.1,1.277,4.651,1.91,1.627,0.663,3.29,1.254,4.863,2.028a17.1,17.1,0,0,1,2.5,1.809c0.573,0.428,1.129.879,1.707,1.3a20.9,20.9,0,0,1,8.686,13.869,15.221,15.221,0,0,1,.194,2.629A7.156,7.156,0,0,0,85.509,337a4.347,4.347,0,0,1-.031,2.589,50.426,50.426,0,0,1-2.92,9.134,16.954,16.954,0,0,1-2.856,4.425,35.938,35.938,0,0,1-16.569,10.613,16.974,16.974,0,0,1-11.3-.631c-3.6-1.334-7.167-2.759-10.669-4.322a16.581,16.581,0,0,1-5.666-4.343A38.45,38.45,0,0,1,26.085,334.3C25.948,333.351,25.907,332.387,25.821,331.423Zm55.24,8.809a11.393,11.393,0,0,0,1.755-9.548,18.034,18.034,0,0,0-8.958-12.21,27.511,27.511,0,0,0-19.726-3.047A18.636,18.636,0,0,0,40.08,326.986a26.975,26.975,0,0,0-2.025,11.5c0.377,9.418,5.1,15.987,13.428,20.008a15.532,15.532,0,0,0,14.335-.2,38.832,38.832,0,0,0,10.344-7.707,28.451,28.451,0,0,0,5.515-8.659C82.027,341.144,81.6,340.77,81.061,340.232ZM59.489,311.856a6.146,6.146,0,0,0-.874-0.5,18.262,18.262,0,0,0-8.064-.723A29.425,29.425,0,0,0,37.716,315.7a19.331,19.331,0,0,0-7.26,8.752,17.956,17.956,0,0,0-1.2,9.183,38.5,38.5,0,0,0,2.525,10.47,55.68,55.68,0,0,0,5.844,9.92,7.334,7.334,0,0,0,2.83,2.538,6.922,6.922,0,0,0,1.347.251c-0.765-.9-1.274-1.51-1.791-2.112a22.326,22.326,0,0,1-5.094-10.215,30.691,30.691,0,0,1,2.537-20.355,20.223,20.223,0,0,1,7.27-8.146,24.648,24.648,0,0,1,12.416-4C57.822,311.953,58.5,311.909,59.489,311.856Zm3.25,100.626q-0.285,2.743-.57,5.49a5.758,5.758,0,0,0-.11,1.193,13.307,13.307,0,0,1-1.636,7.17c-0.811,1.742-1.712,3.442-2.582,5.156a17.032,17.032,0,0,1-7.095,7.278,29.227,29.227,0,0,1-14.739,3.644,16.778,16.778,0,0,1-6.982-1.556c-2.032-.936-4.04-1.942-5.982-3.051a20.226,20.226,0,0,1-8.656-9.387c-1.677-3.735-3.9-7.172-5.665-10.849-0.832-1.729-1.605-3.487-2.394-5.237a2.9,2.9,0,0,1-.294-0.91C5.748,408,5.059,404.6,5.218,401.135A28.85,28.85,0,0,1,6.261,394.5a16.916,16.916,0,0,1,4.783-7.925,36.5,36.5,0,0,1,7.3-5.446c9.477-5.141,18.71-4.549,27.659,1.389,4.537,3.01,7.549,7.323,10.221,11.932,0.843,1.454,1.663,2.922,2.554,4.346A24.727,24.727,0,0,1,62.739,412.482Zm-3.1,2.31c0-.882,0-1.763-0.017-2.645-0.209-8.814-7.1-17.176-12.754-20.019A15.643,15.643,0,0,0,35.928,390.7a29.336,29.336,0,0,0-15.489,9.109,19.108,19.108,0,0,0-4.71,16.055,32.738,32.738,0,0,0,2.642,8.7c3.1,7.02,8.748,10.884,15.922,12.683,4.374,1.1,8.73.463,13-.917a13.958,13.958,0,0,0,8.221-6.589c0.945-1.672,1.978-3.3,2.94-4.959,0.549-.95,1.269-1.87.652-3.1a1.429,1.429,0,0,1,.1-0.936A16.37,16.37,0,0,0,59.644,414.792ZM41.805,385.84a8.858,8.858,0,0,0-.989-0.7,24.066,24.066,0,0,0-8.944-2.508,19.706,19.706,0,0,0-10.933,1.989,29.56,29.56,0,0,0-7.011,4.994,15.084,15.084,0,0,0-4.434,8.325,31.981,31.981,0,0,0,.269,11.219,6.108,6.108,0,0,0,.673,1.359c0.094-.647.138-0.96,0.184-1.273a22.743,22.743,0,0,1,4.534-10.97,31.534,31.534,0,0,1,20.794-12.148C37.818,385.85,39.741,385.931,41.805,385.84Zm1.954,27.249a2.352,2.352,0,0,1,.86-0.39,18.465,18.465,0,0,1,9.1,3.348,1.434,1.434,0,0,1,.511,1,0.943,0.943,0,0,1-.944.911,22.2,22.2,0,0,1-2.618.106,13.722,13.722,0,0,0-3.5-.035c0.451,0.874.9,1.617,1.224,2.408a11.565,11.565,0,0,1,.794,2.49,1.209,1.209,0,0,1-1.528,1.339,3.831,3.831,0,0,1-1.322-.52c-0.988-.668-1.94-1.392-2.873-2.134a0.692,0.692,0,0,1-.045-0.65A0.706,0.706,0,0,1,44,420.652a4.354,4.354,0,0,1,1.131.355c0.577,0.246,1.139.532,1.946,0.914a4.438,4.438,0,0,0-.184-1.053c-0.359-.714-0.778-1.4-1.162-2.1-1.039-1.895-.491-2.831,1.722-2.866,0.876-.013,1.755.091,2.63,0.163,0.386,0.033.768,0.119,1.656,0.264a8.937,8.937,0,0,0-1.157-.924,16.84,16.84,0,0,0-4.8-1.431A2.535,2.535,0,0,1,43.759,413.089Zm2.5-8.731a9.952,9.952,0,0,0-.969.286,1.5,1.5,0,0,1-1.555-.291,6.655,6.655,0,0,1-1.748-2.459c0.976-.992,1.681.226,2.621,0.351a15.682,15.682,0,0,1,1.141-1.433,1.454,1.454,0,0,1,2.4.361,4.8,4.8,0,0,1,.418,1.105,8.794,8.794,0,0,1-.8,6.237,1.23,1.23,0,0,1-.416.568,1.515,1.515,0,0,1-.865.18,0.684,0.684,0,0,1-.331-0.544c0-.873.079-1.745,0.107-2.617C46.286,405.566,46.267,405.029,46.263,404.358Zm-14.651,2.93c0.238,0.862.42,1.369,0.512,1.891a1.583,1.583,0,0,1-1.026,1.93,13.287,13.287,0,0,1-2.793.46,0.8,0.8,0,0,1-.856-0.681,0.817,0.817,0,0,1,.593-0.918c0.72-.282,1.459-0.515,2.3-0.806-0.46-.95-0.876-1.715-1.208-2.515a1.167,1.167,0,0,1,1.271-1.688,2.182,2.182,0,0,1,.473.054,15.46,15.46,0,0,1,7.479,4.666c-0.151.71-.489,0.869-0.906,0.647-0.63-.334-1.216-0.753-1.825-1.129A13.836,13.836,0,0,0,31.612,407.288Zm2.266,18.656-1.817-.538a0.751,0.751,0,0,1,.518-1.018,3.727,3.727,0,0,1,1.406-.173,1.735,1.735,0,0,1,1.668,1.728c0.027,0.7-.067,1.4-0.116,2.266,1.614-.5,2.339-1.743,3.216-3.139a2.662,2.662,0,0,1,.439.987,4.483,4.483,0,0,1-.515,1.571,8.83,8.83,0,0,1-3.791,3.227,1.26,1.26,0,0,1-1.556-.19,1.334,1.334,0,0,1-.31-1.337C33.3,428.255,33.567,427.177,33.878,425.944Zm6.233-19.7a3.031,3.031,0,0,1-.615-0.093,2.589,2.589,0,0,1-1.613-2.622,1.271,1.271,0,0,1,1.012-1.152,1.18,1.18,0,0,1,1.395.6,11.207,11.207,0,0,1,.439,2.51A1.76,1.76,0,0,1,40.112,406.245Zm3.22,24.34a8.393,8.393,0,0,1,.82-1.3,1.252,1.252,0,0,1,1.716-.07,1.134,1.134,0,0,1,.169,1.5,5.619,5.619,0,0,1-1.014,1.3,1.263,1.263,0,0,1-1.049.262,1.866,1.866,0,0,1-.628-0.884A2.735,2.735,0,0,1,43.331,430.585ZM30.486,418.691c-0.324-.044-0.562-0.065-0.8-0.111a1.017,1.017,0,0,1-.651-1.5,2.085,2.085,0,0,1,2.541-.73,0.969,0.969,0,0,1,.64,1.149,1.689,1.689,0,0,1-.67.893A3.439,3.439,0,0,1,30.486,418.691ZM28.655,425.8c-0.947-.036-1.355-0.706-1.108-1.237A2.8,2.8,0,0,1,29.269,423a0.965,0.965,0,0,1,1.208.53,1.443,1.443,0,0,1,.015,1.1A2.17,2.17,0,0,1,28.655,425.8Zm25.3-14.448c-0.865.015-1.226-.579-1.027-1.011a2.475,2.475,0,0,1,1.533-1.353,0.917,0.917,0,0,1,1.152.508,1.3,1.3,0,0,1-.18,1.052A8.066,8.066,0,0,1,53.957,411.348Zm-2.014-83.454a29.069,29.069,0,0,1,1.943,2.384,1.577,1.577,0,0,1-1.22,2.47c-0.845.111-1.167-.407-0.819-1.316,0.055-.143.1-0.291,0.173-0.523-0.748-.961-1.591-1.923-2.284-2.982a6.778,6.778,0,0,1-.89-2.18,1.125,1.125,0,0,1,1.378-1.218,2.389,2.389,0,0,1,.886.325q3.419,2.4,6.8,4.858a0.664,0.664,0,0,1,.075.63,0.688,0.688,0,0,1-.562.325,10.151,10.151,0,0,1-2.171-.886c-1.071-.664-2.062-1.458-3.087-2.2Zm13.617,11.734c-1.277.9-.974,2.207-1.42,3.136a0.47,0.47,0,0,1-.715-0.415A4.061,4.061,0,0,1,63.4,341.4c0.208-1.9.657-2.49,2.435-3.273-0.67-.924-2.014-0.842-2.7-1.645a0.541,0.541,0,0,1,.754-0.5,6.082,6.082,0,0,1,1.375.375,19.1,19.1,0,0,1,6.337,4.226c0.947,0.943,1.195,1.684.743,2.011a1.684,1.684,0,0,1-2-.224c-1.035-.6-2.034-1.267-3.066-1.874C66.747,340.182,66.167,339.931,65.561,339.628Zm-8.37.18c0.925,1.674-.552,2.72-0.2,4.033,1.415-1.067,1.29-2.864,2.073-4.082a0.557,0.557,0,0,1,.7.578c0.095,3.21-1.558,5.445-4.065,7.161a1.16,1.16,0,0,1-1.094-.021,1.18,1.18,0,0,1-.223-1.064c0.4-1.126.921-2.212,1.394-3.313C56.188,342.148,56.6,341.2,57.19,339.808Zm11.026-10.38a8.013,8.013,0,0,1,4-3.15,1.219,1.219,0,0,1,1.071.194,0.919,0.919,0,0,1-.063,1.284,7.358,7.358,0,0,1-2.929,2.462ZM66.938,349.31a2.984,2.984,0,0,1-1.149-.521,20.816,20.816,0,0,1-1.564-2.662,0.93,0.93,0,0,1,.253-0.826,1.067,1.067,0,0,1,.87-0.2,3.829,3.829,0,0,1,2.5,2.67,0.592,0.592,0,0,1-.025.466C67.569,348.6,67.265,348.923,66.938,349.31Zm-16.165-9.316c-0.771-.022-1.382.076-1.623-0.6a1.184,1.184,0,0,1,.951-1.424,7.167,7.167,0,0,1,2.051-.386,1.139,1.139,0,0,1,1.057,1.086,1.1,1.1,0,0,1-.8,1.063A12.066,12.066,0,0,1,50.773,339.994Zm12.578-16.351a1.316,1.316,0,0,1-1.393,1.311,1.487,1.487,0,0,1-1.27-1.493,1.28,1.28,0,0,1,1.111-1.323A1.6,1.6,0,0,1,63.351,323.643Zm11.661,10.043c-1.328.8-1.328,0.8-3.478,0.619a0.859,0.859,0,0,1,.868-1.1A2.388,2.388,0,0,1,75.012,333.686Zm43.394,152.67c-5.88.145-14.116-3.572-16.948-11.674a28.049,28.049,0,0,1-.963-3.088,13.88,13.88,0,0,1,1.082-9.71,23.107,23.107,0,0,1,7.945-8.985,14.658,14.658,0,0,1,12.389-1.762,9.628,9.628,0,0,0,2.867.376,5.487,5.487,0,0,1,4.751,2.107,39.843,39.843,0,0,1,3.277,4.925,24.361,24.361,0,0,1,2.753,11.706c-0.018,7.63-5.451,12.9-10.9,14.977A16.083,16.083,0,0,1,118.406,486.356Zm1.349-33.383c-3.856-.047-6.817.886-9.3,3.006a26.958,26.958,0,0,0-3.912,4.045c-3.087,4.037-3.8,8.431-1.51,13.13,0.039,0.08.06,0.169,0.1,0.25,2.558,5.6,6.994,8.5,13.05,8.868,7.367,0.442,15.284-6.031,13.093-15.6a27.31,27.31,0,0,0-5.8-11.4,5.727,5.727,0,0,0-3.9-2.138C120.769,453.054,119.966,452.992,119.755,452.973Zm-1.145,10.24c0.46,1.181.853,2.082,1.162,3.011a2.194,2.194,0,0,1-.7,2.658,2.328,2.328,0,0,1-2.774.06,22.976,22.976,0,0,1-2.36-1.943c-0.78.623-1.528,1.253-2.309,1.837-1.358,1.016-2.748,1.2-3.724.539a3.393,3.393,0,0,1-.992-3.9,4.574,4.574,0,0,1,1.591-2.437,3.6,3.6,0,0,0,1.368-2.236,4.1,4.1,0,0,1,3.572-3.5,5.418,5.418,0,0,0,1.388-.769A14.971,14.971,0,0,1,117,455.5a4.351,4.351,0,0,1,5.569,2.418,2.688,2.688,0,0,1-1.248,3.855c-0.387.209-.859,0.262-1.249,0.468A17.4,17.4,0,0,0,118.61,463.213Zm-4.564,1.992a15.815,15.815,0,0,1,1.6.974c0.555,0.43,1.015.981,1.569,1.411a0.678,0.678,0,0,0,.991-0.734c-0.249-.761-0.6-1.486-0.885-2.237-0.716-1.9-.149-3.049,1.816-3.7,0.508-.169,1.042-0.262,1.541-0.45a1.134,1.134,0,0,0,.613-1.553,2.907,2.907,0,0,0-4.135-1.682c-0.565.261-1.069,0.649-1.619,0.946a5.61,5.61,0,0,1-1.915.913,2.339,2.339,0,0,0-2.28,2.22,4.889,4.889,0,0,1-1.779,3.182,3.24,3.24,0,0,0-1.089,2.375,0.972,0.972,0,0,0,1.447.954c0.761-.459,1.436-1.059,2.182-1.545C112.7,465.894,113.338,465.593,114.046,465.205Zm1.06-3.781a1.913,1.913,0,0,1-1.467,2.025,0.984,0.984,0,0,1-.772-0.543,1.529,1.529,0,0,1,1.664-1.839A1.548,1.548,0,0,1,115.106,461.424ZM170.62,56.886c-1.561-5.681.051-14.584,7.216-19.294a27.8,27.8,0,0,1,2.76-1.681,13.811,13.811,0,0,1,9.667-1.294,23.076,23.076,0,0,1,10.624,5.552,14.718,14.718,0,0,1,4.7,11.618,9.641,9.641,0,0,0,.329,2.878,5.506,5.506,0,0,1-.894,5.126,39.734,39.734,0,0,1-3.98,4.375,24.27,24.27,0,0,1-10.675,5.5c-7.4,1.825-13.816-2.182-17.143-6.98A16.168,16.168,0,0,1,170.62,56.886Zm32.667-6.753c-0.886-3.759-2.5-6.412-5.157-8.309A26.933,26.933,0,0,0,193.266,39c-4.657-2.026-9.086-1.659-13.084,1.7-0.069.058-.15,0.1-0.22,0.155-4.809,3.84-6.549,8.853-5.438,14.827,1.35,7.267,9.533,13.4,18.271,8.96a27.268,27.268,0,0,0,9.638-8.394,5.751,5.751,0,0,0,1.128-4.311C203.454,51.139,203.319,50.343,203.287,50.133Zm-10.2,1.361c-1.033.732-1.811,1.332-2.636,1.858a2.186,2.186,0,0,1-2.744-.039,2.336,2.336,0,0,1-.728-2.681,23.3,23.3,0,0,1,1.311-2.764c-0.791-.607-1.582-1.181-2.337-1.8-1.311-1.074-1.827-2.381-1.421-3.49a3.383,3.383,0,0,1,3.535-1.905,4.565,4.565,0,0,1,2.745.958,3.587,3.587,0,0,0,2.5.79,4.1,4.1,0,0,1,4.254,2.627,5.392,5.392,0,0,0,1.08,1.163,15.1,15.1,0,0,1,1.528,1.855,4.364,4.364,0,0,1-1,6,2.679,2.679,0,0,1-4.036-.281c-0.3-.327-0.461-0.772-0.754-1.1A17.461,17.461,0,0,0,193.09,51.494Zm-3.032-3.955a16.036,16.036,0,0,1-.556,1.8c-0.282.643-.706,1.223-0.988,1.865a0.679,0.679,0,0,0,.951.787c0.676-.426,1.294-0.944,1.952-1.4,1.665-1.154,2.919-.881,4.027.871,0.286,0.452.505,0.95,0.809,1.388a1.129,1.129,0,0,0,1.652.221,2.917,2.917,0,0,0,.63-4.426c-0.389-.485-0.887-0.881-1.307-1.345a5.622,5.622,0,0,1-1.347-1.641,2.337,2.337,0,0,0-2.7-1.68,4.873,4.873,0,0,1-3.512-.961,3.227,3.227,0,0,0-2.564-.485,0.974,0.974,0,0,0-.575,1.637c0.629,0.629,1.373,1.14,2.024,1.748C189.065,46.394,189.512,46.944,190.058,47.538Zm3.918,0.117a1.906,1.906,0,0,1-2.315-.936A0.99,0.99,0,0,1,192,45.838,1.365,1.365,0,0,1,193.976,47.656ZM100.662,36.785c-5.881.112-14.1-3.653-16.881-11.771a27.971,27.971,0,0,1-.945-3.094,13.879,13.879,0,0,1,1.138-9.7,23.123,23.123,0,0,1,8-8.94,14.66,14.66,0,0,1,12.4-1.69,9.6,9.6,0,0,0,2.865.392,5.486,5.486,0,0,1,4.738,2.135,39.687,39.687,0,0,1,3.249,4.944,24.364,24.364,0,0,1,2.686,11.721c-0.062,7.63-5.525,12.871-10.988,14.915A16.084,16.084,0,0,1,100.662,36.785ZM102.2,3.41c-3.855-.069-6.822.846-9.312,2.951a27,27,0,0,0-3.935,4.023c-3.111,4.02-3.849,8.409-1.586,13.121,0.039,0.081.059,0.17,0.1,0.252,2.526,5.616,6.945,8.543,13,8.942,7.364,0.485,15.318-5.943,13.183-15.52a27.317,27.317,0,0,0-5.739-11.43,5.732,5.732,0,0,0-3.892-2.16C103.216,3.5,102.413,3.43,102.2,3.41ZM101,13.643c0.453,1.184.841,2.088,1.145,3.018a2.194,2.194,0,0,1-.716,2.654,2.327,2.327,0,0,1-2.774.044A23.172,23.172,0,0,1,96.3,17.4c-0.783.618-1.534,1.244-2.319,1.824-1.364,1.007-2.755,1.185-3.727.516a3.392,3.392,0,0,1-.969-3.9,4.574,4.574,0,0,1,1.6-2.428,3.6,3.6,0,0,0,1.381-2.229A4.1,4.1,0,0,1,95.867,7.7a5.362,5.362,0,0,0,1.392-.761A14.963,14.963,0,0,1,99.431,5.92a4.351,4.351,0,0,1,5.555,2.45,2.689,2.689,0,0,1-1.27,3.848c-0.389.207-.861,0.257-1.252,0.461A17.358,17.358,0,0,0,101,13.643Zm-4.576,1.967a15.893,15.893,0,0,1,1.6.982c0.552,0.433,1.009.987,1.561,1.42a0.678,0.678,0,0,0,1-.728c-0.245-.762-0.594-1.49-0.873-2.242-0.7-1.9-.131-3.05,1.838-3.693,0.509-.165,1.044-0.255,1.544-0.442a1.133,1.133,0,0,0,.622-1.548,2.909,2.909,0,0,0-4.126-1.706c-0.566.258-1.072,0.643-1.624,0.937a5.62,5.62,0,0,1-1.92.9A2.339,2.339,0,0,0,93.747,11.7a4.892,4.892,0,0,1-1.8,3.171,3.238,3.238,0,0,0-1.1,2.369,0.972,0.972,0,0,0,1.442.963c0.763-.455,1.442-1.051,2.191-1.532C95.07,16.29,95.713,15.992,96.423,15.609ZM97.5,11.835a1.912,1.912,0,0,1-1.478,2.016,0.987,0.987,0,0,1-.77-0.548A1.364,1.364,0,0,1,97.5,11.835Zm65.747,274.949c0.415,6.486-4.879,15.508-14.092,17.734a13.978,13.978,0,0,1-13.9-3.7c-3.526-3.447-6.122-7.458-6.871-12.46a9.044,9.044,0,0,1-.143-2.148,24.614,24.614,0,0,1,5.783-14.342,12.25,12.25,0,0,1,11.226-4.515,3.766,3.766,0,0,1,1.21.2c2.363,1.194,5.036,1.714,7.231,3.249,1.683,1.177,3.292,2.459,4.922,3.712a8.547,8.547,0,0,1,2.935,3.885A23.582,23.582,0,0,1,163.252,286.783Zm-11.368-14.677c-0.754.614-1.3,1.116-2.089,0.557a12.754,12.754,0,0,0-1.293-.833c-4.239-2.311-8.064-1.751-11.5,1.644a18.9,18.9,0,0,0-5.3,11.212,11.136,11.136,0,0,0,.82,6.339,21.811,21.811,0,0,0,6.1,8.021c3.837,3.091,8.107,3.375,12.461,1.552a14.913,14.913,0,0,0,8.671-16.945,16.535,16.535,0,0,0-.679-2.684,12.848,12.848,0,0,0-1.652-3.267A34.323,34.323,0,0,0,151.884,272.106ZM130.6,249.324c2.315,2.63,2.454,5.826,1.442,8.944a18.7,18.7,0,0,1-12.3,12.423,10.219,10.219,0,0,1-6.937-.086,22.373,22.373,0,0,1-6.664-3.769,10.441,10.441,0,0,1-1.751-1.726c-3.321-4.412-4.733-9.342-3.451-14.784a13.265,13.265,0,0,1,6.788-8.756,10.344,10.344,0,0,1,9.188-.7c0.462,0.184.945,0.313,1.513,0.5,0.059-.851.053-1.569,0.172-2.264a1.984,1.984,0,0,1,1.886-1.7,2.011,2.011,0,0,1,1.888,1.344,15.257,15.257,0,0,1,.439,1.474c0.115,0.382.24,0.761,0.423,1.337,0.833-.233,1.575-0.5,2.34-0.642,1.469-.265,1.975.122,2.32,1.65,0.066,0.3.1,0.6,0.169,1.047,0.787,0.079,1.584.114,2.364,0.247a1.917,1.917,0,0,1,1.652,2.464A20.121,20.121,0,0,1,130.6,249.324Zm-9.793-4.031c0.823,0.489,1.7.98,2.553,1.523q1.547,0.988,3.037,2.062a3.156,3.156,0,0,1,.354,1.094c-1.776-.894-3.215-1.6-4.634-2.339-1.269-.663-2.6-1.256-2.954-2.9a1.511,1.511,0,0,0-.82-0.827,10.294,10.294,0,0,0-6.575-.917c-5.907,1.254-8.961,7.388-8.246,12.389a14.37,14.37,0,0,0,9.607,12.136,8.585,8.585,0,0,0,5.718.289,13.92,13.92,0,0,0,9.6-9.221,7.72,7.72,0,0,0,.541-4.2,49.678,49.678,0,0,1-.758-5.99c0.579-1.031,2.591-1.1,2.053-3.1-0.929,0-1.843.017-2.755-.006a1.582,1.582,0,0,1-1.482-.917c-0.209-.42-0.459-0.82-0.749-1.331a3.612,3.612,0,0,1-3.032.82C121.328,243.59,121.07,244.353,120.8,245.293Zm23.4,29.32c0.053-.058.251-0.284,0.466-0.494,1.823-1.781,3.762-1.6,5.079.481a2.479,2.479,0,0,1,.026,2.891c-0.447.673-.949,1.309-1.522,2.091,0.914,0.778,1.815,1.436,2.58,2.227a3.066,3.066,0,0,1,.819,3.389,3.124,3.124,0,0,1-2.711,2.207,5.3,5.3,0,0,1-2.343-.47,20.851,20.851,0,0,1-2.1-1.271,1.19,1.19,0,0,0-1.633.376c-0.423.575-.711,1.247-1.114,1.838a4.954,4.954,0,0,1-6.765,1.64,4.02,4.02,0,0,1-1.835-5.533,30.2,30.2,0,0,0,3.052-7.313,3.206,3.206,0,0,1,3.283-2.347C141,274.333,142.514,274.5,144.206,274.613Zm-2.274,1.485c-0.825,0-1.741-.036-2.652.011a1.674,1.674,0,0,0-1.569,1.272,15.557,15.557,0,0,0-.469,2.4,5.867,5.867,0,0,1-1.391,3.349,6.064,6.064,0,0,0-.762.963,2.566,2.566,0,0,0,.493,3.572,2.91,2.91,0,0,0,4.134-.373c0.437-.558.706-1.245,1.091-1.848a3.261,3.261,0,0,1,4.734-1.282c0.715,0.394,1.363.91,2.079,1.3a1.345,1.345,0,0,0,1.873-.432,1.286,1.286,0,0,0-.289-1.672c-0.678-.62-1.461-1.127-2.13-1.756a2.375,2.375,0,0,1-.508-3.075,25.844,25.844,0,0,1,1.585-2.226,3.54,3.54,0,0,0-.423-0.88c-0.771-.834-1.512-0.718-1.818.253-0.062.195-.066,0.409-0.133,0.6-0.29.837-.158,2.043-1.266,2.26-1.393.272-1.358-1.26-2.016-1.935C142.423,276.529,142.343,276.466,141.932,276.1Zm-0.7,2.879a1.64,1.64,0,1,1-.231,3.271A1.64,1.64,0,1,1,141.228,278.977ZM5.181,109.593a9.97,9.97,0,0,1,6.922-4.611,16.954,16.954,0,0,1,6.444.012,23.225,23.225,0,0,1,12.042,6.029c0.6,0.6,1.233,1.169,1.872,1.729a46.218,46.218,0,0,0,12.175,7.916,49.862,49.862,0,0,1,8.6,4.5,50.59,50.59,0,0,1,13.876,14.759,67.466,67.466,0,0,1,8.141,19.38,156.263,156.263,0,0,1,4.657,27.628c0.237,2.927.517,5.851,0.783,8.775a23.8,23.8,0,0,0,3.657,10.647c0.494,0.785,1.008,1.561,1.444,2.378a4.629,4.629,0,0,1,.513,1.516,1.261,1.261,0,0,1-1.723,1.251,5.255,5.255,0,0,1-1.315-.928,57.779,57.779,0,0,0-4.475-3.95,54.373,54.373,0,0,0-5.761-4.26,6.322,6.322,0,0,1-2.773-3.014,6.836,6.836,0,0,0-4.834-3.957c-3.8-1.032-7.582-2.124-11.392-3.109-4.709-1.219-9.447-2.326-14.159-3.538a68.52,68.52,0,0,1-9.289-2.861A40.4,40.4,0,0,1,11.437,170.06,55.6,55.6,0,0,1,5.8,157.633a121.393,121.393,0,0,1-4.954-23.8,54.258,54.258,0,0,1,.872-15.662A27.545,27.545,0,0,1,5.181,109.593Zm70.029,81.245c-0.394-5.317-.685-10.642-1.542-15.915a184.636,184.636,0,0,0-4.783-21.249,58.763,58.763,0,0,0-7.845-17.232A36.615,36.615,0,0,0,44.7,122.528a90.594,90.594,0,0,1-11.569-6.31,26.747,26.747,0,0,1-4.3-3.494,21.124,21.124,0,0,0-12.291-5.381,9.832,9.832,0,0,0-1.385-.041,8.124,8.124,0,0,0-8.135,5.663,29.733,29.733,0,0,0-1.764,8.594,47.388,47.388,0,0,0,.834,13.374A178.747,178.747,0,0,0,11.844,156.9a62.3,62.3,0,0,0,5,11.206,37.618,37.618,0,0,0,16.591,15.322,60.761,60.761,0,0,0,9.59,3.4c5.934,1.71,11.882,3.374,17.794,5.158a57.7,57.7,0,0,1,6.04,2.34,7.834,7.834,0,0,1,4.107,3.915,6.627,6.627,0,0,0,3.17,3.226c1.083,0.544,2.09,1.239,3.13,1.867C75.829,199.167,75.52,195,75.211,190.838ZM53.558,141.506a3.162,3.162,0,0,0-1.121,2.183q-0.736,2.922-1.5,5.837c-0.112.425-.293,0.833-0.408,1.155a0.812,0.812,0,0,1-1.04-.532,39.488,39.488,0,0,0-9.22-9.684A97.894,97.894,0,0,1,28,129.221c-1.936-2.093-4.1-3.977-6.171-5.938a1.72,1.72,0,0,0-1.949-.639,9.825,9.825,0,0,0,.777,1.171c2.789,3.1,5.555,6.217,8.407,9.256,2.428,2.588,4.941,5.1,7.453,7.606a40.185,40.185,0,0,1,5.567,6.493c0.41,0.635.761,1.307,1.278,2.2a6.656,6.656,0,0,1-1.308.056q-6.136-1.178-12.263-2.4c-0.747-.148-1.486-0.341-2.155-0.5a0.619,0.619,0,0,0,.144,1.063,9.812,9.812,0,0,0,1.835.939,62.872,62.872,0,0,0,13.95,3.22c0.3,0.03.6,0.1,1.057,0.182a43.888,43.888,0,0,1,3.642,12.247c-2.056-.128-3.895-0.218-5.728-0.363-3.382-.266-6.761-0.576-10.144-0.836a8.4,8.4,0,0,0-1.831.106,0.68,0.68,0,0,0-.279,1.118,4.336,4.336,0,0,0,1.322.862,11.586,11.586,0,0,0,2.253.511c4.81,0.664,9.608,1.491,14.5,1.21a2.222,2.222,0,0,1,.564.165c0.2,0.571.431,1.214,0.644,1.864A39.409,39.409,0,0,0,67.279,190.9a9.647,9.647,0,0,0,1.859.927,1.8,1.8,0,0,0,2.4-2.27,6.556,6.556,0,0,0-1.21-2.207c-0.822-1.018-1.795-1.911-2.683-2.877-1.881-2.043-3.818-4.04-5.606-6.162a31.783,31.783,0,0,1-5.978-11.168c-0.551-1.769-1-3.572-1.558-5.339-0.653-2.059-1.324-4.117-2.1-6.134a3.791,3.791,0,0,1-.111-2.662c0.673-2.214,1.24-4.466,1.724-6.73a22.007,22.007,0,0,0,.276-3.454C54.32,142.427,54.19,142.284,53.558,141.506ZM16.03,134.572a1.878,1.878,0,0,0,.205.787,3.448,3.448,0,0,0,1.073.819,36.524,36.524,0,0,0,3.811,1.555,4.981,4.981,0,0,0,2.019.02,1.016,1.016,0,0,0,.482-0.68,0.819,0.819,0,0,0-.262-0.581,1.248,1.248,0,0,0-.568-0.363q-3.092-.853-6.2-1.665A1.73,1.73,0,0,0,16.03,134.572Zm6.029,23.368c1.061,0.139,1.973.315,2.892,0.353a3.015,3.015,0,0,0,1.278-.38,0.666,0.666,0,0,0-.01-1,1.715,1.715,0,0,0-.614-0.287c-1.751-.219-3.506-0.414-5.26-0.613a0.317,0.317,0,0,0-.22.042,1.456,1.456,0,0,0-.574.595,0.931,0.931,0,0,0,.445.7,5.941,5.941,0,0,0,1.3.443A7.482,7.482,0,0,0,22.058,157.94Zm39.683,5.443a4.9,4.9,0,0,0,1.285-.594,11.7,11.7,0,0,0,2.664-3.961,0.67,0.67,0,0,0,.041-0.442,0.974,0.974,0,0,0-.342-0.533,0.757,0.757,0,0,0-.612.053,1.361,1.361,0,0,0-.449.5c-0.818,1.374-1.63,2.753-2.423,4.14A3.327,3.327,0,0,0,61.741,163.383Z" transform="translate(-0.563 -0.938)"/>
</svg>
