<svg xmlns="http://www.w3.org/2000/svg" width="325.875" height="240.656" viewBox="0 0 325.875 240.656">
  <defs>
    <style>
      .cls-1 {
        fill-rule: evenodd;
        opacity: 0.1;
      }
    </style>
  </defs>
  <path class="cls-1" d="M75.887,74.915l-4.664,9.23c-0.519-.376-1.044-0.731-1.543-1.121C62.654,77.517,49.624,79,44.452,88.251c-4.048,7.243-4.536,14.67-.32,22.093,0.494,0.87,1.005,1.73,1.638,2.818a7.827,7.827,0,0,1-1.564.558c-9.107.986-16.568,5.245-22.977,11.561a20.206,20.206,0,0,0-5,7.884q-1.256,3.656-2.375,7.359a61.762,61.762,0,0,1-7.768,16.341,26.044,26.044,0,0,1-4.642,5.72c-0.814.691-1.737,1.507-1.269,3.087a3.445,3.445,0,0,0,4.182-.292c3.789-3.141,8.35-4.24,13.027-4.983a76.572,76.572,0,0,1,15.753-.891c3.355,0.162,6.725.027,10.088,0.03,1.227,0,2.454.019,3.87,0.03-0.084.779-.12,1.427-0.228,2.061-0.394,2.319-.967,4.62-1.178,6.955a37.124,37.124,0,0,0-.039,7.037,16.624,16.624,0,0,0,6.515,11.711,28.55,28.55,0,0,1,3.612,3.475c6.675,7.559,13.4,15.066,21.013,21.72a169.892,169.892,0,0,0,21.3,15.819,79.683,79.683,0,0,0,31.309,11.57c13.648,2,27.046.848,40.408-2.084a96.581,96.581,0,0,0,20.3-7c2.742-1.282,5.513-2.5,8.284-3.724,0.911-.4,1.86-0.713,2.923-1.115,0.489,0.527.9,1.04,1.38,1.479,3.678,3.362,7.792,4.765,12.657,2.77,4.045-1.659,8.151-3.179,12.135-4.972q9.814-4.419,19.408-9.315a78.58,78.58,0,0,0,14.476-9.727c1.292-1.076,2.539-2.207,3.863-3.241a54.344,54.344,0,0,0,10.971-12.2c1.311-1.886,2.328-3.848,1.965-6.243-0.179-1.177.513-1.837,1.3-2.533a161.826,161.826,0,0,0,13.742-13.335,135.979,135.979,0,0,0,18.7-27.024,76.739,76.739,0,0,0,5.366-13.047,174.859,174.859,0,0,0,7.964-38.1c0.175-2.122.322-4.246,0.484-6.369,1.036-13.583-1.605-26.548-6.727-39.053a58.68,58.68,0,0,0-6.319-11.845q-3.406-4.794-6.747-9.633a23.955,23.955,0,0,1-1.884-3.166,24.117,24.117,0,0,0-8.89-9.857,49.7,49.7,0,0,0-14.1-6.224C269.534,1.207,257.827.851,246.021,2.2a158.458,158.458,0,0,0-30.44,6.937,207.846,207.846,0,0,0-22.316,8.462,203.731,203.731,0,0,0-20.239,10.654c-5.784,3.446-11.556,6.9-16.737,11.244a5.909,5.909,0,0,1-1.717,1.038c-8.278,3.025-15.743,7.589-23.193,12.186a8.615,8.615,0,0,1-.869.379c-5.632-1.491-11.351-1.22-16.648,1.953A21.173,21.173,0,0,0,103.735,68.77l-9.443-2.405c0.484-.716.9-1.346,1.332-1.97,5.393-7.869,6.726-16.245,3.01-25.172-1.29-3.1-2.812-6.1-4.255-9.137a58.53,58.53,0,0,1-3.607-10.114A101.592,101.592,0,0,1,87.26,2.885C87.1,1.09,86.327.16,85.252,0.244c-1.386.109-1.776,1.134-2.06,2.29-0.374,1.524-.81,3.033-1.244,4.54a35.1,35.1,0,0,1-4.268,9.473c-2.5,3.85-4.974,7.731-7.667,11.447a47.6,47.6,0,0,0-6.68,13.132,29.447,29.447,0,0,0-.623,15.589C64.183,63.68,68.254,68.83,73.639,73.15,74.409,73.767,75.19,74.369,75.887,74.915ZM65.009,192.46a7,7,0,0,1,1.145-.076,61.216,61.216,0,0,0,18.06-1.062,222.1,222.1,0,0,0,49.576-15.672c8.1-3.572,16.26-7.026,24.343-10.644,5.832-2.61,11.636-5.294,17.356-8.14,6.624-3.3,13.181-6.734,19.7-10.238a247.333,247.333,0,0,0,25.161-14.92c7.619-5.342,15.33-10.554,22.889-15.977,4.55-3.264,9.046-6.638,13.289-10.285a237.21,237.21,0,0,0,27.2-27.865,120.823,120.823,0,0,0,17.491-27,52.2,52.2,0,0,0,4.95-16.68,8.548,8.548,0,0,1,.528-1.5c0.5,0.677.778,0.986,0.976,1.342A100.375,100.375,0,0,1,314.428,48,90.048,90.048,0,0,1,319.5,88.3a180.5,180.5,0,0,1-8.732,39.634,72.145,72.145,0,0,1-7.836,16.329c-2.429,3.762-4.909,7.5-7.547,11.119a113.136,113.136,0,0,1-25.291,24.9c-8.437,6.106-17.39,11.5-26.158,17.146a57.973,57.973,0,0,1-5.64,2.985c-2.205,1.1-4.482,2.049-6.661,3.193-6.552,3.442-12.974,7.144-19.627,10.374-8.064,3.915-16.292,7.5-24.492,11.127-3.07,1.358-6.226,2.551-9.409,3.619-5.863,1.966-11.97,2.891-18.03,4.013-12.312,2.28-24.554,1.662-36.766-.72a45.132,45.132,0,0,1-10.886-3.416,120.224,120.224,0,0,1-11.034-5.711c-13.461-8.246-25.082-18.758-36.222-29.836A2.138,2.138,0,0,1,65.009,192.46ZM135.878,55.491c5.156-3.463,9.7-7.531,15.69-9.191a3.887,3.887,0,0,0,1.172-.65,56.017,56.017,0,0,1,9.748-5.276,2.154,2.154,0,0,0,1.231-.991c0.184-1.5,1.342-1.968,2.39-2.577A241.856,241.856,0,0,1,195.58,22.074,200.98,200.98,0,0,1,236.49,10.12a106.435,106.435,0,0,1,25.438-1.795,79.509,79.509,0,0,1,19.811,3.594,41.226,41.226,0,0,1,10.849,5.288A15.2,15.2,0,0,1,299.3,27.641a23.231,23.231,0,0,1-.207,8.024,46.459,46.459,0,0,1-3.79,11.111,111.007,111.007,0,0,1-12.656,20.581,219.03,219.03,0,0,1-18.333,20.56,176.257,176.257,0,0,1-24.276,20.7c-4.421,3.07-8.772,6.241-13.148,9.375a217.56,217.56,0,0,1-25.227,16.1c-8.836,4.645-17.656,9.327-26.6,13.748-7.639,3.774-15.392,7.332-23.2,10.748-8.731,3.819-17.569,7.395-26.379,11.032A225.525,225.525,0,0,1,89.016,181.3a91.423,91.423,0,0,1-14.6,2.315,32.568,32.568,0,0,1-11.335-1.04,21.549,21.549,0,0,1-3.742-1.477,8.467,8.467,0,0,1-4.758-6.887,18.469,18.469,0,0,1-.121-4.019c0.321-3,.844-5.986,1.219-8.985a6.861,6.861,0,0,1,3.776-5.471,20.759,20.759,0,0,0,10.255-13.167,16.662,16.662,0,0,1,.59-1.61,12.23,12.23,0,0,1,3.629,2.021c-2.719,4.191-2.9,8.765-2.556,13.383a11.318,11.318,0,0,0,1.238,4.144c1.206,2.38,2.709,4.56,2.927,7.391a3.741,3.741,0,0,0,2.648,3.208c0.664,0.222,1.584-.42,1.333-1.023a8.581,8.581,0,0,1-.261-4.942,5.4,5.4,0,0,0-.727-3.559c-0.544-.98-1.164-1.928-1.605-2.952a13.224,13.224,0,0,1-1.147-3.484,22.427,22.427,0,0,1,.583-8,6.8,6.8,0,0,1,1.221-2.355,2.074,2.074,0,0,1,1.4-.766c2.092-.069,4.187,0,6.328.012-1.292,4.914-.731,6.665,2.12,7a1.184,1.184,0,0,0,.174-0.585,4.452,4.452,0,0,1,.328-4.478,6.275,6.275,0,0,0,.785-3.555,9.8,9.8,0,0,1,2.951-6.931,11.9,11.9,0,0,1,4.443-2.952,33.4,33.4,0,0,1,9.148-2.083,17.771,17.771,0,0,0,14.13-9.09,34.647,34.647,0,0,1,2.03-3.083,14.414,14.414,0,0,1,10.765-6.1c1.116-.094,2.229-0.241,3.344-0.355a22.7,22.7,0,0,0,11.119-4.434,17.6,17.6,0,0,0,3.225-3.378c0.774-.974.688-2.024,0.058-2.39-0.861-.5-1.5.079-2.137,0.5-0.845.55-1.64,1.179-2.487,1.726a9.04,9.04,0,0,1-1.42.566c-0.032-1.328-.071-2.417-0.084-3.509-0.063-5.182-1.608-9.689-5.84-13.009a6.761,6.761,0,0,1-.982-1.263c0.663-.6,1.124-1.089,1.653-1.489a13.766,13.766,0,0,0,5.244-8.733,25.63,25.63,0,0,0,.5-6,5.008,5.008,0,0,1,1.405-3.938c0.532-.572,1.077-1.133,1.643-1.673,1.457-1.391,2.936-2.76,4.394-4.152a106.338,106.338,0,0,1,11.1-9.739,21.438,21.438,0,0,1,14.2-4.185c1.9,0.107,3.81.2,5.707,0.381a8.657,8.657,0,0,0,8.428-3.848,16.216,16.216,0,0,1,11.209-6.722c2.761-.454,5.551-0.745,8.335-1.05,2.577-.283,4.5-1.315,5.1-4.054,0.391-1.791,1.645-2.485,3.334-2.838a25.855,25.855,0,0,1,12,0,12.09,12.09,0,0,0,8.514-.8c3.445-1.632,6.923-3.2,10.306-4.954a16.92,16.92,0,0,1,11.428-1.512c5.879,1.15,11.311,3.495,16.818,5.974a2.782,2.782,0,0,0,.839,3.041c3.428,3.856,5.512,8.147,3.819,13.511a13.959,13.959,0,0,0-.409,3.312,0.958,0.958,0,0,0,.582.687,0.934,0.934,0,0,0,.852-0.239c0.649-1.42,1.2-2.882,1.818-4.317a14.106,14.106,0,0,0,.033-10.81c-1.107-3.009-2.8-5.351-6.351-5.813,0.408-2.033-1.077-2.912-2.325-3.807A39.418,39.418,0,0,0,261.564,16a19.482,19.482,0,0,0-14.545,2.551c-2.663,1.664-5.427,3.173-8.044,4.9a17.807,17.807,0,0,1-10.787,3.07,71.015,71.015,0,0,0-9.042.59c-2.173.207-3.9,1.229-4.457,3.479-0.581,2.335-2.156,2.93-4.283,2.8-0.9-.053-1.8-0.14-2.688-0.1-2.237.088-4.491,0.092-6.7,0.391A16.524,16.524,0,0,0,189.3,40.789c-0.387.549-.768,1.1-1.161,1.649a5.507,5.507,0,0,1-4.885,2.453c-1.905-.056-3.812-0.071-5.716-0.148a25.2,25.2,0,0,0-16.166,4.69c-3.549,2.55-7.045,5.175-10.526,7.818-2.582,1.96-5.1,4-7.764,6.1-0.978-1.272-1.971-2.749-3.156-4.052S137.355,56.866,135.878,55.491ZM44.8,138.146a37.717,37.717,0,0,1,.907,10.308c-0.056.777-.084,1.558-0.068,2.336a0.689,0.689,0,0,0,.417.444,0.7,0.7,0,0,0,.614-0.045,6.047,6.047,0,0,0,1.251-1.924,21.122,21.122,0,0,0,.7-4.625c0.052-3.006-.1-6.017-0.181-9.254,1.465-1.024,3.167-2.106,4.745-3.345a54.23,54.23,0,0,0,4.8-4.191c1.39-1.385,2.587-2.963,4.112-4.739,0.456,2.858.568,5.452,1.334,7.836a61.977,61.977,0,0,0,3.533,7.5A25.518,25.518,0,0,1,58.837,150.9a27.366,27.366,0,0,1-11.711,5.563,58.165,58.165,0,0,1-14.681,1.308,82.031,82.031,0,0,0-21.02,1.836,5.918,5.918,0,0,1-1.631-.181,43.638,43.638,0,0,1,6.725-6.55,69.97,69.97,0,0,1,13.017-7.641,6.471,6.471,0,0,1,1.492-.184c-0.808,1.884-1.373,3.463-2.14,4.938-1.7,3.26-1.742,3.238-1.472,4.441,2.477-1.144,4.558-4.588,6.743-11.238,3.073-1.574,6.257-3.213,9.453-4.828A5.007,5.007,0,0,1,44.8,138.146Zm40.69,0.751c-1.006.151-1.774,0.306-2.551,0.374a20.221,20.221,0,0,1-2.348.057c-5.292-.166-11.713-3.728-12.061-11.59-0.153-3.462-.506-6.913-0.755-10.37-0.04-.557.011-1.12-0.012-1.679a3.946,3.946,0,0,1,1.11-3.06c1.717-1.762,3.361-3.6,5.177-5.255a11.223,11.223,0,0,1,3.155-1.848c3.4-1.454,6.819-.892,10.189.182,8.845,2.819,12.1,10.552,11.583,17.605-0.194,2.628-1.032,4.574-3.927,5.524a14.376,14.376,0,0,0-8.556,8.079C86.211,137.519,85.891,138.1,85.486,138.9Zm10.2-66.326c1,0.1,1.863.128,2.707,0.284a9.091,9.091,0,0,1,7.484,6.417,47.853,47.853,0,0,1,1.429,4.816A19.441,19.441,0,0,1,107,93.712a8.05,8.05,0,0,1-2.045,3.8c-4.222,4-9.08,5.618-14.776,3.777a27.534,27.534,0,0,0-8.546-1.558c-0.768,0-1.536-.016-2.308-0.026a14.879,14.879,0,0,1-2.326-10.65,20.529,20.529,0,0,1,4.534-10.325A16.9,16.9,0,0,1,91.7,72.7a1.662,1.662,0,0,1,.629.4l-0.92,1.959c-0.538-.056-0.864-0.082-1.187-0.127a12.648,12.648,0,0,0-1.323-.2c-1.276-.043-1.725.351-1.978,1.735a7.277,7.277,0,0,0-.041,1.171,17.909,17.909,0,0,0-2.222,1.125,1.3,1.3,0,0,0,.054,2.045,5.38,5.38,0,0,0,1.826.769c1.079,0.191,2.188.215,3.249,0.305A20.991,20.991,0,0,0,91.045,84a2,2,0,0,0,2.967.217,7.26,7.26,0,0,0,1.318-1.9,17.64,17.64,0,0,1,.811-2.163,7.508,7.508,0,0,1,1.722-1.37,4.838,4.838,0,0,1-.975-1.523c-0.093-.749.306-1.583,0.131-2.29A10.724,10.724,0,0,0,95.684,72.571Zm-85.4,84.467a9.24,9.24,0,0,1,.518-1.361A93.223,93.223,0,0,0,21.09,134.982a15.191,15.191,0,0,1,3.618-5.6,35.729,35.729,0,0,1,13.657-8.917,21.348,21.348,0,0,1,9.557-1.338c3.233,0.315,6.46.678,9.688,1.046a4.059,4.059,0,0,1,1.014.493,33.866,33.866,0,0,1-7.3,8.066,38.1,38.1,0,0,0-16.5.078A18.81,18.81,0,0,0,31.4,130.1a0.8,0.8,0,0,0-.609,1,0.737,0.737,0,0,0,.193.274,16.439,16.439,0,0,0,2.29-.157,39.365,39.365,0,0,1,13.365-.293,1.059,1.059,0,0,1,1.183,1.071,64.49,64.49,0,0,1-14.767,10.15,86.8,86.8,0,0,0-16.162,9.569C14.787,153.352,12.731,155.059,10.284,157.037ZM132.337,84.053c-1.435-.56-2.98-1.192-4.546-1.769a13.049,13.049,0,0,0-12.728,1.9c-0.718.51-1.436,1.022-2.294,1.634a65.687,65.687,0,0,0-1.856-7.571,66.757,66.757,0,0,0-3.511-6.991,42.475,42.475,0,0,1,4.677-5.934,20.3,20.3,0,0,1,6.53-4.642,15.17,15.17,0,0,1,17.534,3.647,9.2,9.2,0,0,1,1.6,2.537,16.44,16.44,0,0,1,.685,10.213c-0.723,3.069-2.941,4.928-5.322,6.663A4.178,4.178,0,0,1,132.337,84.053ZM74.419,101.711c-5.623,3.512-8.786,9.162-12.175,14.909-2.222-1.894-4.913-2.944-7.523-4.146-0.407-.188-0.806-0.4-1.218-0.57a9.743,9.743,0,0,1-4.61-4.253C45.651,102.118,45.85,96.533,48.8,91A11.087,11.087,0,0,1,56.3,85.263a18.04,18.04,0,0,1,14.114,2.755,49.68,49.68,0,0,0,1.03,7.122A49.359,49.359,0,0,0,74.419,101.711ZM93.3,37.5c2.814,3.324,4.035,8.8,3.024,13.822-2.37,1.378-4.88,2.844-7.4,4.3-1.164.672-2.368,1.278-3.492,2.009a0.915,0.915,0,0,0,.591,1.705,30.027,30.027,0,0,0,3.516-1.075c0.948-.339,1.851-0.807,2.8-1.151,0.885-.321,1.664-1.011,2.97-1.014a9.72,9.72,0,0,1-.613,1.742q-2.631,4.291-5.341,8.533a2.351,2.351,0,0,1-.963.893c-1.825.773-3.681,1.476-5.493,2.191a1.811,1.811,0,0,1-.439-0.61C82.2,63.7,81.855,58.567,81.725,53.425,81.4,40.711,83.21,28.186,85.326,15.7c0.076-.446-0.048-1.134.827-1.182,0.77,3.285,1.392,6.583,2.334,9.786,0.971,3.3,2.255,6.511,3.46,9.927-1.471,1.885-3.009,3.805-4.49,5.767-1.446,1.916-3.64,3.277-4.589,6.034a4.647,4.647,0,0,0,1.746-.206,23.721,23.721,0,0,0,3.121-2.534C89.637,41.408,91.45,39.438,93.3,37.5ZM273.9,186.9a0.941,0.941,0,0,1-.146,1.335,66.875,66.875,0,0,1-9.9,10.468c-2.441,1.968-4.884,3.933-7.363,5.853a60.313,60.313,0,0,1-7.983,5.562,305.649,305.649,0,0,1-27.863,13.366c-2.271.953-4.533,1.932-6.836,2.8a6.759,6.759,0,0,1-7.41-1.385,2.316,2.316,0,0,1,1.449-2.161c1.4-.705,2.778-1.464,4.2-2.114a98.772,98.772,0,0,0,16.257-9.428c1-.709,2.113-1.247,3.282-1.927,2.244,0.994,4.521.379,6.766-.391a14.5,14.5,0,0,0,2.422-1.159c2.728-1.55,5.5-3.03,8.139-4.721,7.261-4.657,14.459-9.412,21.689-14.113A14.358,14.358,0,0,1,273.9,186.9Zm-154.44-71.756a10.207,10.207,0,0,1-7.136-6.968,17.3,17.3,0,0,1-1.119-4.537c-0.466-8.753.629-10.908,7.816-14.978a9.261,9.261,0,0,1,1.533-.67,6.6,6.6,0,0,1,3.63-.256,23.239,23.239,0,0,1,10.4,5.145,7.049,7.049,0,0,1,2.356,3.952,18.894,18.894,0,0,1-.494,9.591,2.087,2.087,0,0,1-1.878,1.644c-1.108.138-2.214,0.3-3.32,0.45a17.211,17.211,0,0,0-10.01,5C120.691,114.054,120.1,114.555,119.458,115.142ZM81.035,18.516c0.029,1,.067,1.23.037,1.448-0.919,6.765-1.952,13.517-2.743,20.3a103.977,103.977,0,0,0-.37,24.455c0.252,2.109.663,4.2,0.932,6.306a6.368,6.368,0,0,1-.327,1.7,14.162,14.162,0,0,1-1.593-1.1c-1.868-1.769-3.725-3.552-5.552-5.366a22.473,22.473,0,0,1-6.2-12.768,12.074,12.074,0,0,1,.3-6.118c0.606,0.424,1.078.7,1.48,1.046,1.35,1.175,2.634,2.43,4.028,3.549A9.615,9.615,0,0,0,73.359,53.2a1,1,0,0,0,.864-0.308,1.161,1.161,0,0,0,.211-0.92,2.872,2.872,0,0,0-.621-1.161c-0.9-1-1.88-1.92-2.762-2.931-1.528-1.752-3.36-3.257-4.528-5.281C69.246,33.486,75.208,26.481,81.035,18.516Zm24.294,83.939c0.457,1.936.763,3.685,1.3,5.36a20.993,20.993,0,0,0,1.934,4.614,20.47,20.47,0,0,0,3.38,4.107,40.88,40.88,0,0,0,4.161,3.1,12.837,12.837,0,0,1-11.991,6.576,5.487,5.487,0,0,1-.034-0.975A22.855,22.855,0,0,0,98.8,106.822a9.855,9.855,0,0,1-.793-1.34ZM89.308,76.578a8.278,8.278,0,0,0,2.8.2c0.63-.187,1.057-1.058,1.575-1.625a0.611,0.611,0,0,1,.23-0.234,3.525,3.525,0,0,1,1.215.146,0.926,0.926,0,0,1,.072.84c-1.5,1.337-1.686,3.06-1.566,4.9a0.566,0.566,0,0,1-.044.329c-0.275.4-.571,0.795-1.044,1.443-1.009-1.739-2.145-2.882-3.785-3.052C88.957,78.465,89.117,77.6,89.308,76.578Zm75.178,30.052c-2.19,3.415-5.769,4.7-8.412,7.689a4.163,4.163,0,0,0,1.274-.01c2.269-1.223,4.51-2.5,6.779-3.718a10.758,10.758,0,0,0,4.632-4.716c0.1-.2.218-0.392,0.319-0.591,3.272-6.434,8.711-9.5,15.742-9.623,6.035-.1,10.746-2.723,14.835-6.829a6.751,6.751,0,0,0,1.441-2.227,1.857,1.857,0,0,0-.411-1.485,1.319,1.319,0,0,0-1.216-.226,14.935,14.935,0,0,0-2.326,1.308c-1.224.787-2.382,1.685-3.642,2.407-1.051.6-2.208,1.016-3.685,1.678a18.423,18.423,0,0,1,.245-2.153,15.387,15.387,0,0,0,.15-6.99,13.271,13.271,0,0,0-4.489-7.675c-0.685-.575-1.4-1.125-2.127-1.638-8.223-5.762-16.13-3.333-21.581,1.482a24.255,24.255,0,0,0-7.938,12.962,3.452,3.452,0,0,1-.849,1.738,3.56,3.56,0,0,0-1.077,3.37,55.708,55.708,0,0,0,1.3,6.9,8.677,8.677,0,0,0,3.941,4.864,50.624,50.624,0,0,0,4.734,2.507C162.8,106,163.522,106.237,164.486,106.63Zm1.737-3.614c-1.5-.556-2.777-0.937-3.974-1.5a9.637,9.637,0,0,1-5.06-5.983,3.437,3.437,0,0,1-.251-1.958c1.27-3.93,2.324-7.978,5.2-11.162a1.688,1.688,0,0,1,.612-0.257c0.815,0.523,1.363,1.144.828,2.2a4.313,4.313,0,0,0-.378.925,2.022,2.022,0,0,0,.623,2.131,1.853,1.853,0,0,0,2.2.169c0.884-.457,1.728-0.991,2.657-1.531a18.373,18.373,0,0,0,1.73,1.066c2.259,1.072,4.039.2,4.524-2.19a4.679,4.679,0,0,1,.216-1.627c1.779-2.432.556-4.412-.794-6.426-0.335-.5-1.148-0.785-0.775-1.819a10.847,10.847,0,0,1,10.01,4.825c2.385,3.557,1.7,7.43-.1,11C176.1,92.636,170,95.824,166.223,103.016Zm-1.742-23.2c1.688,0,3.014.088,4.323-.027,1.5-.132,2.082-1.513,2.91-2.6a5.894,5.894,0,0,1,2.165,3.68c-1.064,1.52-1.064,1.52-1.47,4.456a12.08,12.08,0,0,1-2.13-.778,2.755,2.755,0,0,0-3.41.194,4.426,4.426,0,0,1-.917.418C166.024,83.149,166.024,83.149,164.481,79.82Zm4.368-3.076c-0.176.846-.5,1.379-1.4,0.813Zm75.441,21.1c1.243,0.1,2.064-.734,2.879-1.463a286.272,286.272,0,0,0,23.907-23.593c3.265-3.692,6.639-7.29,9.828-11.044a54.447,54.447,0,0,0,10.227-19.155,37.183,37.183,0,0,0,1.452-13.637,13.519,13.519,0,0,0-4.154-8.92,27.5,27.5,0,0,0-11.45-6.792,66.225,66.225,0,0,0-19.227-2.867c-10-.149-19.581,1.88-28.987,5.1-9.335,3.192-18.69,6.334-27.788,10.153A290.326,290.326,0,0,0,165.9,42.668c-2.02,1.189-3.894,2.622-5.865,3.9-0.843.546-1.759,0.979-2.643,1.462-4.427,2.424-8.862,4.833-13.276,7.281-1.068.592-2.252,1.126-2.743,2.363a1.566,1.566,0,0,0,.154,1.2,1,1,0,0,0,.916.247,11.807,11.807,0,0,0,2.136-.977q9.723-5.7,19.42-11.458a3.337,3.337,0,0,0,1.49-1.285c0.587-1.584,1.979-2.086,3.256-2.718,10.052-4.974,20.2-9.742,30.493-14.2q15.6-6.75,31.751-12.013a77.053,77.053,0,0,1,27.126-4.009,75.35,75.35,0,0,1,14.657,1.9,27.517,27.517,0,0,1,13.3,6.821,12.037,12.037,0,0,1,3.914,8.628,42.045,42.045,0,0,1-3.564,17.987c-2.916,6.677-7.258,12.3-12.245,17.534-8.272,8.68-16.8,17.1-25.326,25.527-1.669,1.649-3.193,3.448-4.726,5.227A1.084,1.084,0,0,0,244.29,97.839ZM217.664,116.9a17.536,17.536,0,0,0-1.943.905c-7.536,4.674-15.393,8.767-23.3,12.772-2.6,1.317-5.276,2.481-7.915,3.717q-6.242,2.925-12.482,5.851c-4.975,2.328-9.936,4.687-14.935,6.962-4.693,2.137-9.416,4.207-14.147,6.26-3.6,1.562-7.2,3.108-10.846,4.56-6.661,2.655-13.331,5.29-20.038,7.828a65.218,65.218,0,0,1-13.984,3.537c-3.216.455-6.394,1.185-9.614,1.592-4.108.52-8.234,0.96-12.366,1.193a25.516,25.516,0,0,1-6-.556,10.043,10.043,0,0,1-5.543-2.972,7.874,7.874,0,0,0-1.5-1.336,1.309,1.309,0,0,0-1.2-.039,1.336,1.336,0,0,0-.305,1.186,7.9,7.9,0,0,0,3.957,4.784,21.17,21.17,0,0,0,10.358,2.471c1.9-.04,3.814-0.113,5.706-0.313,10.477-1.108,20.977-2.16,31-5.676,5.5-1.928,10.956-3.976,16.341-6.192,7.15-2.944,14.314-5.888,21.281-9.229,8.387-4.023,16.568-8.473,24.849-12.718q7.632-3.912,15.3-7.756c7.835-3.909,15.406-8.282,22.86-12.865A13.219,13.219,0,0,0,217.664,116.9Zm-7.248-6.726c4.145-2.821,7.833-5.852,10.153-10.236,0.209-.394.477-0.758,0.674-1.157a3.833,3.833,0,0,1,3.537-2.127c1-.051,2.007.027,3.012,0.034a9.863,9.863,0,0,0,1.662-.044,1.54,1.54,0,0,0,1.1-2.3,4.828,4.828,0,0,0-1.627-1.611,9.97,9.97,0,0,0-9.345-.058,8.988,8.988,0,0,0-2.388,2.287,8.185,8.185,0,0,0-1.034,1.717,26.742,26.742,0,0,1-5.225,6.913c-1.193,1.17-2.29,2.44-3.414,3.679a12.275,12.275,0,0,0-1.039,1.313,1.65,1.65,0,0,0,2,2.585C209.2,110.858,209.872,110.456,210.416,110.173Zm-41.231,15.636a5.254,5.254,0,0,0,.294-1.716,1.411,1.411,0,0,0-1.11-.345,0.843,0.843,0,0,0-.494,1.3A5.552,5.552,0,0,0,169.185,125.809ZM80.868,114.732c-0.26-.919-0.53-2.116-0.952-3.258a4.877,4.877,0,0,0-1.1-1.653,2.1,2.1,0,0,0-3.508.854,21.265,21.265,0,0,0-.436,2.806c-0.608.092-1.232,0.18-1.855,0.281a13.527,13.527,0,0,0-2.28.408,1.69,1.69,0,0,0-.874,2.478,8.371,8.371,0,0,0,.848,1.024c0.282,0.339.559,0.682,0.979,1.2-0.661.482-1.248,0.913-1.837,1.341a2.021,2.021,0,0,0-1.013,1.974,1.975,1.975,0,0,0,1.785,1.731c0.532,0.085,1.066.163,1.647,0.252a21.648,21.648,0,0,0,.493,2.662,2.271,2.271,0,0,0,4.026.408,12.675,12.675,0,0,0,.818-2.845c0.187-.954-0.22-2.032.758-2.99a17.572,17.572,0,0,0,1.812,0,7.622,7.622,0,0,0,2.268-.385,2.113,2.113,0,0,0,1.069-3.075A28.853,28.853,0,0,0,80.868,114.732Zm-2.5,1.382c0.948,1.086,2.659,1.261,3.086,2.924a3.289,3.289,0,0,1-1.095.247c-3.379-.668-4.582.416-5.009,3.605a0.54,0.54,0,0,1-.176.2l-2.869-1.56c2.034-2.185,2.028-2.181.579-4.684a3.175,3.175,0,0,1-.21-0.839c3.126-.379,3.126-0.379,5.16-2.366ZM130.58,70.749a26.462,26.462,0,0,0,1.688,2.492,1.641,1.641,0,0,0,2.7-.662,1.832,1.832,0,0,0,.126-0.98,5.336,5.336,0,0,1,.508-4.419c0.885-1.687-.523-3.351-2.474-3.253a2.5,2.5,0,0,0-.987.136,2.565,2.565,0,0,1-2.8.007,2.278,2.278,0,0,0-1.287-.181,1.441,1.441,0,0,0-1.3,2.136,3.164,3.164,0,0,1,.536,3.068c-0.438,1.218.223,1.882,1.53,1.879A14.663,14.663,0,0,0,130.58,70.749Zm3.144-4.606-1.888,2.985-2.635-.3c-0.237-1.187-.456-2.278-0.675-3.371,1.3-.133,1.2,1.652,2.39,1.555C131.613,66.334,132.006,64.928,133.724,66.143Zm-80.16,35.533a19.249,19.249,0,0,0,2.053,2.062,1.453,1.453,0,0,0,2.258-1.079c0.056-.66-0.075-1.332-0.072-2a2.046,2.046,0,0,1,1.6-2.227c0.527-.164,1.109-0.149,1.641-0.3,1.463-.428,1.817-1.586.827-2.829a18.7,18.7,0,0,0-1.691-1.655c0.087-.893.23-1.772,0.246-2.653a1.571,1.571,0,0,0-2.02-1.6,4.109,4.109,0,0,0-2.954,2.462c-0.35.67,0.123,1.256,0.954,1.189a5.5,5.5,0,0,0,.9-0.223,6.2,6.2,0,0,0,2.213,3.58c-1.749.805-3.468,1.641-3.683,4.133L53.5,99.246c0.889-1.433,1.572-2.83.124-4.194,1.012-.463,1.065.693,1.837,0.762a1.417,1.417,0,0,0,.344-0.7,3.911,3.911,0,0,0-.9-1.668,3.4,3.4,0,0,0-2.871-.538A1.529,1.529,0,0,0,50.8,95.337a18.716,18.716,0,0,0,1.117,1.7c-0.553.716-1.067,1.295-1.478,1.939a2.169,2.169,0,0,0-.025,2.523,1.654,1.654,0,0,0,2.1.463C52.836,101.862,53.159,101.786,53.564,101.676ZM56,96.424q-0.037.236-.072,0.472a2.5,2.5,0,0,0,.522-0.079,0.6,0.6,0,0,0,.077-0.29Zm74.068,7.453c0.913-.286,1.666-0.473,2.38-0.759a1.188,1.188,0,0,0,.635-1.668c-1.311-1.922-2.667-3.816-4.1-5.65a1.318,1.318,0,0,0-1.99.438c-0.42.9-.728,1.849-1.089,2.79-1.361-.338-2.406-1.831-4.241-0.854a13.686,13.686,0,0,0,.084,1.442c0.081,0.536.249,1.059,0.361,1.516a30.75,30.75,0,0,0-1.994,2.393,1.5,1.5,0,0,0,.984,2.342,11.3,11.3,0,0,0,1.323.15c0.325,0.045.646,0.127,1.026,0.2a16.939,16.939,0,0,0,1.212,1.549,2.447,2.447,0,0,0,4.158-.562A25.938,25.938,0,0,0,130.064,103.877Zm-3.425,2.555a19.793,19.793,0,0,0-1.649-1.527c-0.675-.5-1.43-0.9-2.292-1.428a4.742,4.742,0,0,1,1.261-1.6c1.46-.583,2.321-1.865,3.55-2.691a3.874,3.874,0,0,1,.972-0.308c0.632,0.741,1.24,1.452,1.859,2.176-1.571,1.1-1.57,1.069-3.637,1.008a1.291,1.291,0,0,0-1,.643,1.8,1.8,0,0,0,.281,1.154,1.492,1.492,0,0,0,.563.3C127.713,104.854,127.712,104.855,126.639,106.432ZM91.231,78.657l0.231,0.188,0.148-.42A0.227,0.227,0,0,0,91.231,78.657Zm79.462,3.505-0.612-.333a2.627,2.627,0,0,0-.305.677,0.767,0.767,0,0,0,.423.284A3.93,3.93,0,0,0,170.692,82.163Z" transform="translate(-0.063 -0.25)"/>
</svg>
